<svg version="1.1" xmlns="http://www.w3.org/2000/svg" viewBox="0 0 1081.6664457262618 445.08722057581963" width="2163.3328914525237" height="890.1744411516393" filter="invert(93%) hue-rotate(180deg)">
  <!-- svg-source:excalidraw -->
  
  <defs>
    <style class="style-fonts">
      @font-face {
        font-family: "Virgil";
        src: url("https://excalidraw.com/Virgil.woff2");
      }
      @font-face {
        font-family: "Cascadia";
        src: url("https://excalidraw.com/Cascadia.woff2");
      }
    </style>
  </defs>
  <rect x="0" y="0" width="1081.6664457262618" height="445.08722057581963" fill="#ffffff"></rect><g stroke-linecap="round" transform="translate(10 10) rotate(0 530.8332228631309 212.54361028790981)"><path d="M32 0 M32 0 C231.88 -4.58, 431.67 -4.07, 1029.67 0 M32 0 C351.82 -3.88, 670.69 -3.61, 1029.67 0 M1029.67 0 C1049.05 -1.18, 1060.37 12.12, 1061.67 32 M1029.67 0 C1051.24 1.71, 1061.73 8.56, 1061.67 32 M1061.67 32 C1060.65 165.04, 1061.79 301.37, 1061.67 393.09 M1061.67 32 C1061.89 120.11, 1060.93 207.09, 1061.67 393.09 M1061.67 393.09 C1062.53 416.36, 1052.44 426.14, 1029.67 425.09 M1061.67 393.09 C1060.48 415.48, 1051.48 423.69, 1029.67 425.09 M1029.67 425.09 C779.42 428.86, 530.3 428.57, 32 425.09 M1029.67 425.09 C791.97 423.57, 555 423.63, 32 425.09 M32 425.09 C8.78 424.46, 1.96 415.81, 0 393.09 M32 425.09 C10.77 424.45, 1.32 413.92, 0 393.09 M0 393.09 C1.6 310.81, 0.96 228.66, 0 32 M0 393.09 C-0.4 273.46, -0.09 154.81, 0 32 M0 32 C1.89 11.81, 9.01 0.22, 32 0 M0 32 C-0.31 10.05, 8.98 -1.7, 32 0" stroke="#000000" stroke-width="2" fill="none"></path></g><g transform="translate(456.3170362996666 21.11222086852672) rotate(0 90.68888854980469 12.5)"><text x="0" y="0" font-family="Virgil, Segoe UI Emoji" font-size="20px" fill="#000000" text-anchor="start" style="white-space: pre;" direction="ltr" dominant-baseline="text-before-edge">Phase SDK Crypto</text></g><g transform="translate(694.1586771840052 106.17507911844075) rotate(0 136.61111450195312 9.199999999999989)"><text x="0" y="0" font-family="Helvetica, Segoe UI Emoji" font-size="16px" fill="#000000" text-anchor="start" style="white-space: pre;" direction="ltr" dominant-baseline="text-before-edge">pss:version:appToken:share0:wrapKey</text></g><g transform="translate(150.3742333309583 88.79063727795221) rotate(0 74.54444122314453 18.399999999999977)"><text x="0" y="0" font-family="Helvetica, Segoe UI Emoji" font-size="16px" fill="#000000" text-anchor="start" style="white-space: pre;" direction="ltr" dominant-baseline="text-before-edge"></text><text x="0" y="18.4" font-family="Helvetica, Segoe UI Emoji" font-size="16px" fill="#000000" text-anchor="start" style="white-space: pre;" direction="ltr" dominant-baseline="text-before-edge">phApp:version:appID</text></g><g transform="translate(196.06624274429805 54.729321169826676) rotate(0 27.266666412353516 9.199999999999989)"><text x="0" y="0" font-family="Helvetica, Segoe UI Emoji" font-size="16px" fill="#000000" text-anchor="start" style="white-space: pre;" direction="ltr" dominant-baseline="text-before-edge">Encrypt</text></g><g transform="translate(804.3338890811215 56.329250667525) rotate(0 27.688888549804688 9.199999999999989)"><text x="0" y="0" font-family="Helvetica, Segoe UI Emoji" font-size="16px" fill="#000000" text-anchor="start" style="white-space: pre;" direction="ltr" dominant-baseline="text-before-edge">Decrypt</text></g><g stroke-linecap="round"><g transform="translate(535.0178762105243 83.80605443286072) rotate(0 0 159.50665104293057)"><path d="M0 0 C0 53.17, 0 265.84, 0 319.01" stroke="#000000" stroke-width="1.5" fill="none" stroke-dasharray="1.5 7"></path></g></g><mask></mask><g stroke-linecap="round" transform="translate(93.88229441991962 166.8824351843872) rotate(0 138.32217395129146 76.84565219516185)"><path d="M32 0 M32 0 C85.07 0, 138.15 0, 244.64 0 M244.64 0 C265.98 0, 276.64 10.67, 276.64 32 M276.64 32 C276.64 64.97, 276.64 97.93, 276.64 121.69 M276.64 121.69 C276.64 143.02, 265.98 153.69, 244.64 153.69 M244.64 153.69 C165.02 153.69, 85.4 153.69, 32 153.69 M32 153.69 C10.67 153.69, 0 143.02, 0 121.69 M0 121.69 C0 99.86, 0 78.03, 0 32 M0 32 C0 10.67, 10.67 0, 32 0" stroke="#000000" stroke-width="1.5" fill="none" stroke-dasharray="1.5 7"></path></g><g transform="translate(69.7901440019782 366.2657489880504) rotate(0 163.73333740234375 9.199999999999989)"><text x="0" y="0" font-family="Helvetica, Segoe UI Emoji" font-size="16px" fill="#000000" text-anchor="start" style="white-space: pre;" direction="ltr" dominant-baseline="text-before-edge">ph:version:ephPublicKey:ciphertext+nonce:tag</text></g><g stroke-linecap="round"><g transform="translate(225.05690449877102 127.59716754366502) rotate(0 0.29650856998864583 16.31957859030001)"><path d="M0 0 C0.1 5.44, 0.49 27.2, 0.59 32.64 M0 0 C0.1 5.44, 0.49 27.2, 0.59 32.64" stroke="#000000" stroke-width="2" fill="none"></path></g><g transform="translate(225.05690449877102 127.59716754366502) rotate(0 0.29650856998864583 16.31957859030001)"><path d="M0.59 32.64 L-5.99 19.16 L6.68 18.93 L0.59 32.64" stroke="none" stroke-width="0" fill="#000000" fill-rule="evenodd"></path><path d="M0.59 32.64 C-1.32 28.71, -3.24 24.79, -5.99 19.16 M0.59 32.64 C-0.87 29.64, -2.33 26.65, -5.99 19.16 M-5.99 19.16 C-3.38 19.11, -0.76 19.07, 6.68 18.93 M-5.99 19.16 C-3.23 19.11, -0.47 19.06, 6.68 18.93 M6.68 18.93 C5.25 22.17, 3.81 25.4, 0.59 32.64 M6.68 18.93 C4.79 23.2, 2.89 27.46, 0.59 32.64 M0.59 32.64 C0.59 32.64, 0.59 32.64, 0.59 32.64 M0.59 32.64 C0.59 32.64, 0.59 32.64, 0.59 32.64" stroke="#000000" stroke-width="2" fill="none"></path></g></g><mask></mask><g transform="translate(114.65138960780223 243.3127054757914) rotate(0 89.0888900756836 9.600000000000023)"><text x="0" y="0" font-family="Cascadia, Segoe UI Emoji" font-size="16px" fill="#000000" text-anchor="start" style="white-space: pre;" direction="ltr" dominant-baseline="text-before-edge">phase.encrypt(data)</text></g><g transform="translate(117.14368103034803 219.22055505784897) rotate(0 93.77777862548828 9.600000000000023)"><text x="0" y="0" font-family="Cascadia, Segoe UI Emoji" font-size="16px" fill="#000000" text-anchor="start" style="white-space: pre;" direction="ltr" dominant-baseline="text-before-edge">data = "Hello World"</text></g><g stroke-linecap="round"><g transform="translate(228.16952266740418 328.3463114023534) rotate(0 0 16.448342061069326)"><path d="M0 0 C0 5.48, 0 27.41, 0 32.9 M0 0 C0 5.48, 0 27.41, 0 32.9" stroke="#000000" stroke-width="2" fill="none"></path></g><g transform="translate(228.16952266740418 328.3463114023534) rotate(0 0 16.448342061069326)"><path d="M0 32.9 L-6.34 19.3 L6.34 19.3 L0 32.9" stroke="none" stroke-width="0" fill="#000000" fill-rule="evenodd"></path><path d="M0 32.9 C-1.85 28.94, -3.69 24.98, -6.34 19.3 M0 32.9 C-1.41 29.88, -2.82 26.85, -6.34 19.3 M-6.34 19.3 C-3.72 19.3, -1.11 19.3, 6.34 19.3 M-6.34 19.3 C-3.58 19.3, -0.81 19.3, 6.34 19.3 M6.34 19.3 C4.84 22.51, 3.35 25.72, 0 32.9 M6.34 19.3 C4.37 23.53, 2.4 27.76, 0 32.9 M0 32.9 C0 32.9, 0 32.9, 0 32.9 M0 32.9 C0 32.9, 0 32.9, 0 32.9" stroke="#000000" stroke-width="2" fill="none"></path></g></g><mask></mask><g stroke-linecap="round" transform="translate(694.9399091572122 168.95934470317536) rotate(0 138.32217395129146 74.76874267637368)"><path d="M32 0 M32 0 C85.07 0, 138.15 0, 244.64 0 M244.64 0 C265.98 0, 276.64 10.67, 276.64 32 M276.64 32 C276.64 63.44, 276.64 94.88, 276.64 117.54 M276.64 117.54 C276.64 138.87, 265.98 149.54, 244.64 149.54 M244.64 149.54 C165.02 149.54, 85.4 149.54, 32 149.54 M32 149.54 C10.67 149.54, 0 138.87, 0 117.54 M0 117.54 C0 96.72, 0 75.9, 0 32 M0 32 C0 10.67, 10.67 0, 32 0" stroke="#000000" stroke-width="1.5" fill="none" stroke-dasharray="1.5 7"></path></g><g transform="translate(672.0210371287062 366.20415087071837) rotate(0 163.73333740234375 9.199999999999989)"><text x="0" y="0" font-family="Helvetica, Segoe UI Emoji" font-size="16px" fill="#000000" text-anchor="start" style="white-space: pre;" direction="ltr" dominant-baseline="text-before-edge">ph:version:ephPublicKey:ciphertext+nonce:tag</text></g><g stroke-linecap="round"><g transform="translate(833.0483573506021 128.03609447569568) rotate(0 0.44321112594752776 18.094917734709952)"><path d="M0 0 C0.15 6.03, 0.74 30.16, 0.89 36.19 M0 0 C0.15 6.03, 0.74 30.16, 0.89 36.19" stroke="#000000" stroke-width="2" fill="none"></path></g><g transform="translate(833.0483573506021 128.03609447569568) rotate(0 0.44321112594752776 18.094917734709952)"><path d="M0.89 36.19 L-5.78 22.75 L6.89 22.44 L0.89 36.19" stroke="none" stroke-width="0" fill="#000000" fill-rule="evenodd"></path><path d="M0.89 36.19 C-1.06 32.28, -3 28.36, -5.78 22.75 M0.89 36.19 C-0.6 33.2, -2.08 30.22, -5.78 22.75 M-5.78 22.75 C-3.17 22.69, -0.56 22.63, 6.89 22.44 M-5.78 22.75 C-3.02 22.69, -0.26 22.62, 6.89 22.44 M6.89 22.44 C5.47 25.69, 4.06 28.93, 0.89 36.19 M6.89 22.44 C5.02 26.72, 3.16 31, 0.89 36.19 M0.89 36.19 C0.89 36.19, 0.89 36.19, 0.89 36.19 M0.89 36.19 C0.89 36.19, 0.89 36.19, 0.89 36.19" stroke="#000000" stroke-width="2" fill="none"></path></g></g><mask></mask><g stroke-linecap="round"><g transform="translate(836.375705319997 356.91956720484177) rotate(0 0 -15.064406347980764)"><path d="M0 0 C0 -5.02, 0 -25.11, 0 -30.13 M0 0 C0 -5.02, 0 -25.11, 0 -30.13" stroke="#000000" stroke-width="1" fill="none"></path></g><g transform="translate(836.375705319997 356.91956720484177) rotate(0 0 -15.064406347980764)"><path d="M0 -30.13 L6.34 -16.53 L-6.34 -16.53 L0 -30.13" stroke="none" stroke-width="0" fill="#000000" fill-rule="evenodd"></path><path d="M0 -30.13 C1.32 -27.3, 2.64 -24.46, 6.34 -16.53 M0 -30.13 C1.5 -26.9, 3.01 -23.68, 6.34 -16.53 M6.34 -16.53 C2.36 -16.53, -1.63 -16.53, -6.34 -16.53 M6.34 -16.53 C1.66 -16.53, -3.02 -16.53, -6.34 -16.53 M-6.34 -16.53 C-4.39 -20.72, -2.43 -24.91, 0 -30.13 M-6.34 -16.53 C-4.28 -20.95, -2.22 -25.36, 0 -30.13 M0 -30.13 C0 -30.13, 0 -30.13, 0 -30.13 M0 -30.13 C0 -30.13, 0 -30.13, 0 -30.13" stroke="#000000" stroke-width="1" fill="none"></path></g></g><mask></mask><g transform="translate(718.5321531565387 194.25142461881637) rotate(0 89.0888900756836 9.600000000000023)"><text x="0" y="0" font-family="Cascadia, Segoe UI Emoji" font-size="16px" fill="#000000" text-anchor="start" style="white-space: pre;" direction="ltr" dominant-baseline="text-before-edge">phase.decrypt(data)</text></g><g transform="translate(718.5321531565382 224.98968549688118) rotate(0 60.9555549621582 28.80000000000001)"><text x="0" y="0" font-family="Cascadia, Segoe UI Emoji" font-size="16px" fill="#000000" text-anchor="start" style="white-space: pre;" direction="ltr" dominant-baseline="text-before-edge">print(data)</text><text x="0" y="19.2" font-family="Cascadia, Segoe UI Emoji" font-size="16px" fill="#000000" text-anchor="start" style="white-space: pre;" direction="ltr" dominant-baseline="text-before-edge"></text><text x="0" y="38.4" font-family="Cascadia, Segoe UI Emoji" font-size="16px" fill="#000000" text-anchor="start" style="white-space: pre;" direction="ltr" dominant-baseline="text-before-edge">$ Hello World</text></g></svg>