<svg version="1.1" xmlns="http://www.w3.org/2000/svg" viewBox="0 0 1081.666445726262 445.08722057581963" width="2163.332891452524" height="890.1744411516393" filter="invert(93%) hue-rotate(180deg)">
  <!-- svg-source:excalidraw -->
  
  <defs>
    <style class="style-fonts">
      @font-face {
        font-family: "Virgil";
        src: url("https://excalidraw.com/Virgil.woff2");
      }
      @font-face {
        font-family: "Cascadia";
        src: url("https://excalidraw.com/Cascadia.woff2");
      }
    </style>
  </defs>
  <rect x="0" y="0" width="1081.666445726262" height="445.08722057581963" fill="#ffffff"></rect><g transform="translate(42.834326862039234 201.83948297990946) rotate(0 76.36666870117188 11.5)"><text x="0" y="0" font-family="Helvetica, Segoe UI Emoji" font-size="20px" fill="#000000" text-anchor="start" style="white-space: pre;" direction="ltr" dominant-baseline="text-before-edge">24 word recovery</text></g><g transform="translate(386.1001304452154 172.33375769647967) rotate(0 44.11111068725586 9.199999999999989)"><text x="0" y="0" font-family="Helvetica, Segoe UI Emoji" font-size="16px" fill="#000000" text-anchor="start" style="white-space: pre;" direction="ltr" dominant-baseline="text-before-edge">1. public key</text></g><g transform="translate(383.9890366922789 230.2774297021724) rotate(0 44.655555725097656 9.199999999999989)"><text x="0" y="0" font-family="Helvetica, Segoe UI Emoji" font-size="16px" fill="#000000" text-anchor="start" style="white-space: pre;" direction="ltr" dominant-baseline="text-before-edge">3. privatekey</text></g><g stroke-linecap="round" transform="translate(35.9971240856587 157.66803222508736) rotate(0 239.49331690525037 54.374414161620905)"><path d="M27.19 0 M27.19 0 C184.51 1.74, 339.43 0.4, 451.8 0 M451.8 0 C468.27 0.68, 477.77 8.17, 478.99 27.19 M478.99 27.19 C477.54 48.64, 478.95 67.19, 478.99 81.56 M478.99 81.56 C479.95 100.96, 469.68 110.65, 451.8 108.75 M451.8 108.75 C335 106.75, 218.5 107.74, 27.19 108.75 M27.19 108.75 C10.35 107.97, -0.61 99.62, 0 81.56 M0 81.56 C-0.56 64.93, 1.2 45.36, 0 27.19 M0 27.19 C-0.95 8.04, 7.07 0.12, 27.19 0" stroke="#495057" stroke-width="1.5" fill="none" stroke-dasharray="1.5 7"></path></g><g stroke-linecap="round" transform="translate(10 10) rotate(0 530.833222863131 212.54361028790981)"><path d="M32 0 M32 0 C231.88 -4.58, 431.67 -4.07, 1029.67 0 M32 0 C351.82 -3.88, 670.69 -3.61, 1029.67 0 M1029.67 0 C1049.05 -1.18, 1060.37 12.12, 1061.67 32 M1029.67 0 C1051.24 1.71, 1061.73 8.56, 1061.67 32 M1061.67 32 C1060.65 165.04, 1061.79 301.37, 1061.67 393.09 M1061.67 32 C1061.89 120.11, 1060.93 207.09, 1061.67 393.09 M1061.67 393.09 C1062.53 416.36, 1052.44 426.14, 1029.67 425.09 M1061.67 393.09 C1060.48 415.48, 1051.48 423.69, 1029.67 425.09 M1029.67 425.09 C779.42 428.86, 530.3 428.57, 32 425.09 M1029.67 425.09 C791.97 423.57, 555 423.63, 32 425.09 M32 425.09 C8.78 424.46, 1.96 415.81, 0 393.09 M32 425.09 C10.77 424.45, 1.32 413.92, 0 393.09 M0 393.09 C1.6 310.81, 0.96 228.66, 0 32 M0 393.09 C-0.4 273.46, -0.09 154.81, 0 32 M0 32 C1.89 11.81, 9.01 0.22, 32 0 M0 32 C-0.31 10.05, 8.98 -1.7, 32 0" stroke="#000000" stroke-width="2" fill="none"></path></g><g transform="translate(381.1885159987021 200.1586491472483) rotate(0 59.42222213745117 9.199999999999989)"><text x="0" y="0" font-family="Helvetica, Segoe UI Emoji" font-size="16px" fill="#000000" text-anchor="start" style="white-space: pre;" direction="ltr" dominant-baseline="text-before-edge">2. symmetric key</text></g><g transform="translate(259.2391434414692 184.10290664498973) rotate(0 33.75555419921875 27.600000000000023)"><text x="0" y="0" font-family="Helvetica, Segoe UI Emoji" font-size="16px" fill="#000000" text-anchor="start" style="white-space: pre;" direction="ltr" dominant-baseline="text-before-edge">Argon2ID</text><text x="0" y="18.4" font-family="Helvetica, Segoe UI Emoji" font-size="16px" fill="#000000" text-anchor="start" style="white-space: pre;" direction="ltr" dominant-baseline="text-before-edge">      + </text><text x="0" y="36.8" font-family="Helvetica, Segoe UI Emoji" font-size="16px" fill="#000000" text-anchor="start" style="white-space: pre;" direction="ltr" dominant-baseline="text-before-edge">Blake2B</text></g><g stroke-linecap="round"><g transform="translate(206.01791163136 210.37806971122245) rotate(0 21.58106642142161 0)"><path d="M0 0 C7.19 0, 35.97 0, 43.16 0 M0 0 C7.19 0, 35.97 0, 43.16 0" stroke="#000000" stroke-width="1" fill="none"></path></g><g transform="translate(206.01791163136 210.37806971122245) rotate(0 21.58106642142161 0)"><path d="M43.16 0 L29.57 6.34 L29.57 -6.34 L43.16 0" stroke="none" stroke-width="0" fill="#000000" fill-rule="evenodd"></path><path d="M43.16 0 C39.29 1.81, 35.41 3.61, 29.57 6.34 M43.16 0 C40.43 1.27, 37.7 2.55, 29.57 6.34 M29.57 6.34 C29.57 2.99, 29.57 -0.35, 29.57 -6.34 M29.57 6.34 C29.57 2.4, 29.57 -1.54, 29.57 -6.34 M29.57 -6.34 C33.4 -4.55, 37.22 -2.77, 43.16 0 M29.57 -6.34 C34.29 -4.14, 39.01 -1.93, 43.16 0 M43.16 0 C43.16 0, 43.16 0, 43.16 0 M43.16 0 C43.16 0, 43.16 0, 43.16 0" stroke="#000000" stroke-width="1" fill="none"></path></g></g><mask></mask><g transform="translate(71.44653775483425 358.1649628314796) rotate(0 46.011112213134766 9.199999999999989)"><text x="0" y="0" font-family="Helvetica, Segoe UI Emoji" font-size="16px" fill="#000000" text-anchor="start" style="white-space: pre;" direction="ltr" dominant-baseline="text-before-edge">sudo pass -&gt;</text></g><g transform="translate(174.1191389603573 357.6838111172438) rotate(0 43.31111145019531 9.199999999999989)"><text x="0" y="0" font-family="Helvetica, Segoe UI Emoji" font-size="16px" fill="#000000" text-anchor="start" style="white-space: pre;" direction="ltr" dominant-baseline="text-before-edge">Argon2ID -&gt;</text></g><g transform="translate(272.9881657569297 357.745328259602) rotate(0 77.97777557373047 9.199999999999989)"><text x="0" y="0" font-family="Helvetica, Segoe UI Emoji" font-size="16px" fill="#000000" text-anchor="start" style="white-space: pre;" direction="ltr" dominant-baseline="text-before-edge">xChaCha20-Poly1305</text></g><g stroke-linecap="round" transform="translate(684.2061494406578 89.97957299096629) rotate(0 170.94466998651683 115.07440287114122)"><path d="M32 0 M32 0 C135.75 1.85, 235.97 -0.11, 309.89 0 M309.89 0 C329.57 0.68, 340.67 9.78, 341.89 32 M341.89 32 C339.4 94.81, 340.81 154.73, 341.89 198.15 M341.89 198.15 C342.85 220.76, 330.98 232.05, 309.89 230.15 M309.89 230.15 C232.91 227.94, 156.37 229.38, 32 230.15 M32 230.15 C11.96 229.37, -0.61 219.41, 0 198.15 M0 198.15 C0.52 145.71, 2.29 90.33, 0 32 M0 32 C-0.95 9.65, 8.67 0.12, 32 0" stroke="#495057" stroke-width="1.5" fill="none" stroke-dasharray="1.5 7"></path></g><g transform="translate(765.9969572088269 52.01025837913869) rotate(0 90.0111083984375 12.5)"><text x="0" y="0" font-family="Virgil, Segoe UI Emoji" font-size="20px" fill="#000000" text-anchor="start" style="white-space: pre;" direction="ltr" dominant-baseline="text-before-edge">Wrapped App Keys:</text></g><g transform="translate(720.2927019976544 103.59502114409725) rotate(0 133.08888244628906 9.199999999999989)"><text x="0" y="0" font-family="Helvetica, Segoe UI Emoji" font-size="16px" fill="#000000" text-anchor="start" style="white-space: pre;" direction="ltr" dominant-baseline="text-before-edge">App seed = 32 bytes high entropy key</text></g><g transform="translate(726.512636299836 355.4754037031581) rotate(0 136.61111450195312 9.199999999999989)"><text x="0" y="0" font-family="Helvetica, Segoe UI Emoji" font-size="16px" fill="#000000" text-anchor="start" style="white-space: pre;" direction="ltr" dominant-baseline="text-before-edge">pss:version:appToken:share0:wrapKey</text></g><g transform="translate(584.8319719043495 191.3937654331121) rotate(0 42.64444351196289 18.399999999999977)"><text x="0" y="0" font-family="Helvetica, Segoe UI Emoji" font-size="16px" fill="#000000" text-anchor="start" style="white-space: pre;" direction="ltr" dominant-baseline="text-before-edge">xChaCha20</text><text x="0" y="18.4" font-family="Helvetica, Segoe UI Emoji" font-size="16px" fill="#000000" text-anchor="start" style="white-space: pre;" direction="ltr" dominant-baseline="text-before-edge">Poly1305 -&gt;</text></g><g stroke-linecap="round"><g transform="translate(505.6246046873523 209.92489300923012) rotate(0 35.248169242262065 0)"><path d="M0 0 C11.75 0, 58.75 0, 70.5 0 M0 0 C11.75 0, 58.75 0, 70.5 0" stroke="#000000" stroke-width="2" fill="none"></path></g><g transform="translate(505.6246046873523 209.92489300923012) rotate(0 35.248169242262065 0)"><path d="M70.5 0 L56.9 6.34 L56.9 -6.34 L70.5 0" stroke="none" stroke-width="0" fill="#000000" fill-rule="evenodd"></path><path d="M70.5 0 C66.84 1.7, 63.19 3.41, 56.9 6.34 M70.5 0 C66.33 1.94, 62.16 3.89, 56.9 6.34 M56.9 6.34 C56.9 3.6, 56.9 0.86, 56.9 -6.34 M56.9 6.34 C56.9 2.66, 56.9 -1.02, 56.9 -6.34 M56.9 -6.34 C61.23 -4.32, 65.56 -2.3, 70.5 0 M56.9 -6.34 C61.54 -4.17, 66.19 -2.01, 70.5 0 M70.5 0 C70.5 0, 70.5 0, 70.5 0 M70.5 0 C70.5 0, 70.5 0, 70.5 0" stroke="#000000" stroke-width="2" fill="none"></path></g></g><mask></mask><g transform="translate(718.3429002660989 125.00003314106084) rotate(0 134.85556030273438 9.199999999999989)"><text x="0" y="0" font-family="Helvetica, Segoe UI Emoji" font-size="16px" fill="#000000" text-anchor="start" style="white-space: pre;" direction="ltr" dominant-baseline="text-before-edge">AppToken = 32 bytes high entropy key</text></g><g transform="translate(720.0129405301402 177.49112942542752) rotate(0 113.30000305175781 9.199999999999989)"><text x="0" y="0" font-family="Helvetica, Segoe UI Emoji" font-size="16px" fill="#000000" text-anchor="start" style="white-space: pre;" direction="ltr" dominant-baseline="text-before-edge">- appID = Ed25519.pubkey(seed)</text></g><g transform="translate(720.4351664822887 205.2911294254277) rotate(0 130.72222900390625 9.199999999999989)"><text x="0" y="0" font-family="Helvetica, Segoe UI Emoji" font-size="16px" fill="#000000" text-anchor="start" style="white-space: pre;" direction="ltr" dominant-baseline="text-before-edge">- appPrivkey = Ed25519.privkey(seed)</text></g><g transform="translate(719.1462718289683 234.2911294254277) rotate(0 135.2111053466797 9.199999999999989)"><text x="0" y="0" font-family="Helvetica, Segoe UI Emoji" font-size="16px" fill="#000000" text-anchor="start" style="white-space: pre;" direction="ltr" dominant-baseline="text-before-edge">- share0 = secret_sharing(appPrivkey)</text></g><g transform="translate(719.9873552221545 262.309977711192) rotate(0 135.2111053466797 9.199999999999989)"><text x="0" y="0" font-family="Helvetica, Segoe UI Emoji" font-size="16px" fill="#000000" text-anchor="start" style="white-space: pre;" direction="ltr" dominant-baseline="text-before-edge">- share1 = secret_sharing(appPrivkey)</text></g><g stroke-linecap="round" transform="translate(704.2550054261262 163.00107399555884) rotate(0 149.5 68.14136214323139)"><path d="M32 0 M32 0 C110.78 -1.34, 191.47 -0.6, 267 0 M32 0 C123.75 1.4, 213.73 0.45, 267 0 M267 0 C286.63 -1.76, 298.44 10.2, 299 32 M267 0 C288.16 -1.52, 298.87 9.02, 299 32 M299 32 C299.25 56.28, 300.03 82.17, 299 104.28 M299 32 C300.13 55.34, 300.09 80.21, 299 104.28 M299 104.28 C297.14 125.48, 288.21 134.91, 267 136.28 M299 104.28 C298.81 126.28, 287.99 136.02, 267 136.28 M267 136.28 C187.6 137.39, 106.48 136.9, 32 136.28 M267 136.28 C211.28 138.09, 155.69 137.57, 32 136.28 M32 136.28 C9.81 135.03, 0.18 123.94, 0 104.28 M32 136.28 C10.2 137.89, -1.67 127.91, 0 104.28 M0 104.28 C-1.41 88.36, -1.85 73.39, 0 32 M0 104.28 C0.44 87.26, -0.36 72.16, 0 32 M0 32 C1.12 11.97, 10.15 0.45, 32 0 M0 32 C-0.43 12.16, 8.8 0.79, 32 0" stroke="#000000" stroke-width="1" fill="none"></path></g><g stroke-linecap="round"><g transform="translate(854.0654649313744 304.5766715539662) rotate(0 0.08777497350729391 21.839227682901537)"><path d="M0 0 C0.03 7.28, 0.15 36.4, 0.18 43.68 M0 0 C0.03 7.28, 0.15 36.4, 0.18 43.68" stroke="#000000" stroke-width="2" fill="none"></path></g><g transform="translate(854.0654649313744 304.5766715539662) rotate(0 0.08777497350729391 21.839227682901537)"><path d="M0.18 43.68 L-6.22 30.11 L6.46 30.06 L0.18 43.68" stroke="none" stroke-width="0" fill="#000000" fill-rule="evenodd"></path><path d="M0.18 43.68 C-1.69 39.73, -3.55 35.77, -6.22 30.11 M0.18 43.68 C-1.25 40.66, -2.67 37.65, -6.22 30.11 M-6.22 30.11 C-3.6 30.1, -0.99 30.09, 6.46 30.06 M-6.22 30.11 C-3.46 30.1, -0.69 30.09, 6.46 30.06 M6.46 30.06 C4.98 33.27, 3.49 36.48, 0.18 43.68 M6.46 30.06 C4.51 34.29, 2.55 38.53, 0.18 43.68 M0.18 43.68 C0.18 43.68, 0.18 43.68, 0.18 43.68 M0.18 43.68 C0.18 43.68, 0.18 43.68, 0.18 43.68" stroke="#000000" stroke-width="2" fill="none"></path></g></g><mask></mask><g stroke-linecap="round"><g transform="translate(335.6885159987021 184.33722057581963) rotate(0 0 26.957189259698737)"><path d="M0 0 C0 8.99, 0 44.93, 0 53.91 M0 0 C0 8.99, 0 44.93, 0 53.91" stroke="#000000" stroke-width="1" fill="none"></path></g></g><mask></mask><g stroke-linecap="round"><g transform="translate(335.4578440933751 183.33722057581963) rotate(0 20.052229665393043 0)"><path d="M0 0 C6.68 0, 33.42 0, 40.1 0 M0 0 C6.68 0, 33.42 0, 40.1 0" stroke="#000000" stroke-width="1" fill="none"></path></g><g transform="translate(335.4578440933751 183.33722057581963) rotate(0 20.052229665393043 0)"><path d="M40.1 0 L26.51 6.34 L26.51 -6.34 L40.1 0" stroke="none" stroke-width="0" fill="#000000" fill-rule="evenodd"></path><path d="M40.1 0 C37.27 1.32, 34.44 2.64, 26.51 6.34 M40.1 0 C36.88 1.5, 33.65 3.01, 26.51 6.34 M26.51 6.34 C26.51 2.36, 26.51 -1.63, 26.51 -6.34 M26.51 6.34 C26.51 1.66, 26.51 -3.02, 26.51 -6.34 M26.51 -6.34 C30.7 -4.39, 34.88 -2.43, 40.1 0 M26.51 -6.34 C30.92 -4.28, 35.34 -2.22, 40.1 0 M40.1 0 C40.1 0, 40.1 0, 40.1 0 M40.1 0 C40.1 0, 40.1 0, 40.1 0" stroke="#000000" stroke-width="1" fill="none"></path></g></g><mask></mask><g stroke-linecap="round"><g transform="translate(335.4752605569645 211.26182743276286) rotate(0 19.86078822199238 0)"><path d="M0 0 C6.62 0, 33.1 0, 39.72 0 M0 0 C6.62 0, 33.1 0, 39.72 0" stroke="#000000" stroke-width="1" fill="none"></path></g><g transform="translate(335.4752605569645 211.26182743276286) rotate(0 19.86078822199238 0)"><path d="M39.72 0 L26.13 6.34 L26.13 -6.34 L39.72 0" stroke="none" stroke-width="0" fill="#000000" fill-rule="evenodd"></path><path d="M39.72 0 C36.89 1.32, 34.06 2.64, 26.13 6.34 M39.72 0 C36.5 1.5, 33.27 3.01, 26.13 6.34 M26.13 6.34 C26.13 2.36, 26.13 -1.63, 26.13 -6.34 M26.13 6.34 C26.13 1.66, 26.13 -3.02, 26.13 -6.34 M26.13 -6.34 C30.31 -4.39, 34.5 -2.43, 39.72 0 M26.13 -6.34 C30.54 -4.28, 34.96 -2.22, 39.72 0 M39.72 0 C39.72 0, 39.72 0, 39.72 0 M39.72 0 C39.72 0, 39.72 0, 39.72 0" stroke="#000000" stroke-width="1" fill="none"></path></g></g><mask></mask><g stroke-linecap="round"><g transform="translate(335.74559698577036 237.4133565112935) rotate(0 19.224513855377154 0)"><path d="M0 0 C6.41 0, 32.04 0, 38.45 0 M0 0 C6.41 0, 32.04 0, 38.45 0" stroke="#000000" stroke-width="1" fill="none"></path></g><g transform="translate(335.74559698577036 237.4133565112935) rotate(0 19.224513855377154 0)"><path d="M38.45 0 L24.85 6.34 L24.85 -6.34 L38.45 0" stroke="none" stroke-width="0" fill="#000000" fill-rule="evenodd"></path><path d="M38.45 0 C35.62 1.32, 32.78 2.64, 24.85 6.34 M38.45 0 C35.22 1.5, 32 3.01, 24.85 6.34 M24.85 6.34 C24.85 2.36, 24.85 -1.63, 24.85 -6.34 M24.85 6.34 C24.85 1.66, 24.85 -3.02, 24.85 -6.34 M24.85 -6.34 C29.04 -4.39, 33.23 -2.43, 38.45 0 M24.85 -6.34 C29.27 -4.28, 33.68 -2.22, 38.45 0 M38.45 0 C38.45 0, 38.45 0, 38.45 0 M38.45 0 C38.45 0, 38.45 0, 38.45 0" stroke="#000000" stroke-width="1" fill="none"></path></g></g><mask></mask><g stroke-linecap="round"><g transform="translate(363.28599063007346 345.2443991592238) rotate(0 0 -35.07216999038394)"><path d="M0 0 C0 -11.69, 0 -58.45, 0 -70.14 M0 0 C0 -11.69, 0 -58.45, 0 -70.14" stroke="#000000" stroke-width="1" fill="none"></path></g><g transform="translate(363.28599063007346 345.2443991592238) rotate(0 0 -35.07216999038394)"><path d="M0 -70.14 L6.34 -56.55 L-6.34 -56.55 L0 -70.14" stroke="none" stroke-width="0" fill="#000000" fill-rule="evenodd"></path><path d="M0 -70.14 C1.32 -67.31, 2.64 -64.48, 6.34 -56.55 M0 -70.14 C1.5 -66.92, 3.01 -63.69, 6.34 -56.55 M6.34 -56.55 C2.36 -56.55, -1.63 -56.55, -6.34 -56.55 M6.34 -56.55 C1.66 -56.55, -3.02 -56.55, -6.34 -56.55 M-6.34 -56.55 C-4.39 -60.74, -2.43 -64.92, 0 -70.14 M-6.34 -56.55 C-4.28 -60.96, -2.22 -65.38, 0 -70.14 M0 -70.14 C0 -70.14, 0 -70.14, 0 -70.14 M0 -70.14 C0 -70.14, 0 -70.14, 0 -70.14" stroke="#000000" stroke-width="1" fill="none"></path></g></g><mask></mask><g transform="translate(137.18317018327457 123.22764008925662) rotate(0 156.64443969726562 12.5)"><text x="0" y="0" font-family="Virgil, Segoe UI Emoji" font-size="20px" fill="#000000" text-anchor="start" style="white-space: pre;" direction="ltr" dominant-baseline="text-before-edge">Wrapped keyring - locally stored</text></g><g transform="translate(429.73259445917734 20.28145706101145) rotate(0 106.4111099243164 12.5)"><text x="0" y="0" font-family="Virgil, Segoe UI Emoji" font-size="20px" fill="#000000" text-anchor="start" style="white-space: pre;" direction="ltr" dominant-baseline="text-before-edge">Phase Console Crypto</text></g><g stroke-linecap="round" transform="translate(28.59166651405576 30.30005216008351) rotate(0 16.208163626678015 14.876855484184603)"><path d="M7.44 0 M7.44 0 C11.51 0, 15.58 0, 24.98 0 M7.44 0 C12.2 0, 16.97 0, 24.98 0 M24.98 0 C29.94 0, 32.42 2.48, 32.42 7.44 M24.98 0 C29.94 0, 32.42 2.48, 32.42 7.44 M32.42 7.44 C32.42 13.32, 32.42 19.21, 32.42 22.32 M32.42 7.44 C32.42 12.96, 32.42 18.49, 32.42 22.32 M32.42 22.32 C32.42 27.27, 29.94 29.75, 24.98 29.75 M32.42 22.32 C32.42 27.27, 29.94 29.75, 24.98 29.75 M24.98 29.75 C18.93 29.75, 12.88 29.75, 7.44 29.75 M24.98 29.75 C19.14 29.75, 13.3 29.75, 7.44 29.75 M7.44 29.75 C2.48 29.75, 0 27.27, 0 22.32 M7.44 29.75 C2.48 29.75, 0 27.27, 0 22.32 M0 22.32 C0 19.19, 0 16.07, 0 7.44 M0 22.32 C0 17.22, 0 12.13, 0 7.44 M0 7.44 C0 2.48, 2.48 0, 7.44 0 M0 7.44 C0 2.48, 2.48 0, 7.44 0" stroke="#000000" stroke-width="1" fill="none"></path></g><g stroke-linecap="round" transform="translate(29.38626672242026 77.02210250638223) rotate(0 16.208163626678015 15)"><path d="M7.5 0 M7.5 0 C11.54 0, 15.59 0, 24.92 0 M24.92 0 C29.92 0, 32.42 2.5, 32.42 7.5 M32.42 7.5 C32.42 12.81, 32.42 18.11, 32.42 22.5 M32.42 22.5 C32.42 27.5, 29.92 30, 24.92 30 M24.92 30 C18.03 30, 11.14 30, 7.5 30 M7.5 30 C2.5 30, 0 27.5, 0 22.5 M0 22.5 C0 18.2, 0 13.89, 0 7.5 M0 7.5 C0 2.5, 2.5 0, 7.5 0" stroke="#000000" stroke-width="1.5" fill="none" stroke-dasharray="1.5 7"></path></g><g transform="translate(69.01296107022677 84.4736678302753) rotate(0 59.83333206176758 9.199999999999989)"><text x="0" y="0" font-family="Helvetica, Segoe UI Emoji" font-size="16px" fill="#000000" text-anchor="start" style="white-space: pre;" direction="ltr" dominant-baseline="text-before-edge">- Encrypted Data</text></g><g transform="translate(69.41716276113448 36.94956567823476) rotate(0 51.75555419921875 9.199999999999989)"><text x="0" y="0" font-family="Helvetica, Segoe UI Emoji" font-size="16px" fill="#000000" text-anchor="start" style="white-space: pre;" direction="ltr" dominant-baseline="text-before-edge">- Derived Keys</text></g></svg>