<svg version="1.1" xmlns="http://www.w3.org/2000/svg" viewBox="0 0 1245.570373713811 730" width="1245.570373713811" height="730">
  <!-- svg-source:excalidraw -->
  
  <defs>
    <style class="style-fonts">
      @font-face {
        font-family: "Virgil";
        src: url("https://excalidraw.com/Virgil.woff2");
      }
      @font-face {
        font-family: "Cascadia";
        src: url("https://excalidraw.com/Cascadia.woff2");
      }
    </style>
  </defs>
  <rect x="0" y="0" width="1245.570373713811" height="730" fill="#ebfbee"></rect><g stroke-linecap="round" transform="translate(41.63483451872071 384.68050996914144) rotate(0 232.92499999999995 115.5)"><path d="M7.86 8.16 C7.86 8.16, 7.86 8.16, 7.86 8.16 M7.86 8.16 C7.86 8.16, 7.86 8.16, 7.86 8.16 M3.66 19.09 C7.96 13.63, 9.4 8.64, 18.1 2.48 M3.66 19.09 C8.14 12.81, 12.76 6.68, 18.1 2.48 M2.75 26.24 C7.53 22.28, 12.36 15.94, 24.4 1.33 M2.75 26.24 C10.17 18.63, 16.74 10.99, 24.4 1.33 M2.48 32.64 C9.43 24.87, 17.73 18.25, 30.7 0.18 M2.48 32.64 C10.43 24.2, 18.82 14.08, 30.7 0.18 M2.88 38.28 C11.63 28.74, 18.41 20.52, 34.37 2.05 M2.88 38.28 C16.08 23.93, 28.79 9.26, 34.37 2.05 M2.62 44.68 C15.15 31.65, 28.2 13.61, 39.36 2.41 M2.62 44.68 C12.02 34.24, 22.91 22.09, 39.36 2.41 M2.36 51.07 C11.07 39.41, 18.81 30.8, 45 2.02 M2.36 51.07 C19.74 32.36, 34.6 14.53, 45 2.02 M2.75 56.72 C17.02 39.5, 32.54 20.97, 49.99 2.38 M2.75 56.72 C14.26 44.59, 24.89 31.95, 49.99 2.38 M2.49 63.11 C22.04 39.78, 41.06 15.15, 55.63 1.98 M2.49 63.11 C20.41 41.01, 40.2 21.23, 55.63 1.98 M2.23 69.51 C19.17 51.39, 31.26 34.71, 60.62 2.34 M2.23 69.51 C13.99 55.14, 26.13 40.92, 60.62 2.34 M2.62 75.16 C16.25 61.88, 29.76 44.54, 66.26 1.95 M2.62 75.16 C23.74 51.55, 45.02 26.97, 66.26 1.95 M2.36 81.55 C19.07 65.58, 31.94 46.29, 71.25 2.31 M2.36 81.55 C21.85 58.25, 44.22 33.71, 71.25 2.31 M2.76 87.2 C26.71 57.93, 52.97 30.41, 76.89 1.91 M2.76 87.2 C23.91 63.23, 44.08 41.02, 76.89 1.91 M2.49 93.59 C28.33 61.4, 58.61 28.25, 81.88 2.27 M2.49 93.59 C24.88 68.03, 47.41 43.26, 81.88 2.27 M2.23 99.99 C23.73 77.98, 44.25 52.56, 87.52 1.88 M2.23 99.99 C26.66 72.11, 48.41 47.24, 87.52 1.88 M2.63 105.64 C24.56 80.57, 45.04 54.91, 92.51 2.24 M2.63 105.64 C36.69 64.37, 70.8 25.52, 92.51 2.24 M2.37 112.03 C34.62 72.54, 69.02 34.09, 98.15 1.85 M2.37 112.03 C28.91 80.39, 56.61 48.39, 98.15 1.85 M2.1 118.43 C39.08 76.16, 73.82 37.96, 103.14 2.21 M2.1 118.43 C39.26 76.31, 76.58 34.58, 103.14 2.21 M2.5 124.07 C40.16 83.9, 76.02 41.31, 108.78 1.81 M2.5 124.07 C31.69 90.49, 62.96 54.37, 108.78 1.81 M2.24 130.47 C37.39 86.95, 74.62 44.44, 113.77 2.17 M2.24 130.47 C46.77 79.2, 89.82 26.68, 113.77 2.17 M2.63 136.11 C28.83 107.9, 51.47 76.23, 119.41 1.78 M2.63 136.11 C35.51 97.25, 68.54 59.16, 119.41 1.78 M2.37 142.51 C43.96 91.87, 86.14 44.43, 124.4 2.14 M2.37 142.51 C51.98 86.83, 99.68 32.81, 124.4 2.14 M2.11 148.91 C37.61 105.19, 73.9 64.93, 130.04 1.74 M2.11 148.91 C42.57 103.61, 83.06 58.07, 130.04 1.74 M2.5 154.55 C53.65 100.19, 100.5 42.73, 135.03 2.1 M2.5 154.55 C40.37 112.11, 75.94 69.4, 135.03 2.1 M2.24 160.95 C46.98 107.02, 92.98 55.94, 140.67 1.71 M2.24 160.95 C35.12 123.13, 67.45 84.74, 140.67 1.71 M1.98 167.35 C36.39 126.68, 70.89 88.3, 145.66 2.07 M1.98 167.35 C46.48 116.44, 91.5 64.06, 145.66 2.07 M2.38 172.99 C38.76 129.79, 74.83 88.69, 150.65 2.43 M2.38 172.99 C48.9 120.07, 95.96 67.02, 150.65 2.43 M2.11 179.39 C36.61 142.94, 68.49 106.27, 156.29 2.03 M2.11 179.39 C62.61 111.24, 121.43 43.81, 156.29 2.03 M2.51 185.03 C41.88 142.75, 78.04 98.05, 161.28 2.39 M2.51 185.03 C48.8 130.43, 94.81 78.09, 161.28 2.39 M2.25 191.43 C41.59 144.24, 85.52 94.39, 166.92 2 M2.25 191.43 C51.76 133.9, 100.81 76.89, 166.92 2 M0.67 199.34 C63.57 124.56, 128.8 51.17, 171.91 2.36 M0.67 199.34 C46.98 145.94, 94.19 92.79, 171.91 2.36 M1.07 204.98 C54.19 140.92, 110.05 78.34, 177.55 1.96 M1.07 204.98 C56.15 141.67, 111.18 79, 177.55 1.96 M2.12 209.87 C52.11 151.54, 102.71 93.77, 182.54 2.32 M2.12 209.87 C47.52 157.88, 93.91 105.58, 182.54 2.32 M3.83 214 C47.64 165.56, 90.33 116.69, 188.18 1.93 M3.83 214 C70.36 136.44, 137.64 59.21, 188.18 1.93 M4.88 218.89 C79.9 132.77, 153.62 44.55, 193.17 2.29 M4.88 218.89 C79.14 132.27, 153.9 46.65, 193.17 2.29 M7.9 221.52 C60.76 161.04, 113.12 100.53, 198.81 1.9 M7.9 221.52 C58.58 162.4, 109.13 104.38, 198.81 1.9 M10.26 224.89 C78.98 143.83, 147.3 64.95, 203.8 2.26 M10.26 224.89 C75.9 147.16, 142.7 69.76, 203.8 2.26 M13.28 227.52 C86.97 143.68, 159.44 59.54, 209.44 1.86 M13.28 227.52 C76.87 154.42, 141.35 80.82, 209.44 1.86 M17.61 228.63 C58.79 182.32, 98.08 134.02, 214.43 2.22 M17.61 228.63 C78.99 158.19, 142.09 85.39, 214.43 2.22 M21.94 229.75 C81.17 163.06, 137.46 97.5, 220.07 1.83 M21.94 229.75 C80.93 163.3, 139.49 97.37, 220.07 1.83 M25.61 231.62 C96.86 150.03, 168.21 68.27, 225.06 2.19 M25.61 231.62 C67.45 182.22, 108.69 134.46, 225.06 2.19 M30.6 231.98 C82.4 175.54, 132.26 117.19, 230.7 1.79 M30.6 231.98 C78.41 175.72, 126.47 120.37, 230.7 1.79 M34.93 233.09 C88.56 173.21, 142.46 111.73, 235.69 2.15 M34.93 233.09 C93.47 164.5, 152.66 97.62, 235.69 2.15 M39.92 233.45 C102.69 162.12, 167.13 86.83, 241.33 1.76 M39.92 233.45 C94.25 173.76, 146.32 112.95, 241.33 1.76 M45.56 233.06 C113.09 157.13, 179.91 80.44, 246.32 2.12 M45.56 233.06 C111.45 160.22, 175.23 86.51, 246.32 2.12 M50.55 233.42 C95.12 180.47, 141.87 130.83, 251.96 1.72 M50.55 233.42 C127.3 145.2, 204.24 57.3, 251.96 1.72 M56.19 233.02 C98.45 184.55, 143.65 132.28, 256.95 2.08 M56.19 233.02 C98.65 185.68, 140.54 137.22, 256.95 2.08 M61.18 233.38 C124.36 163.72, 185.16 93.31, 262.59 1.69 M61.18 233.38 C112.83 174.74, 164.39 116.96, 262.59 1.69 M66.82 232.99 C134.5 159.37, 199.03 83.34, 267.58 2.05 M66.82 232.99 C139.48 149.7, 212.69 65.37, 267.58 2.05 M71.81 233.35 C111.29 184.12, 153.87 135.8, 272.56 2.41 M71.81 233.35 C121.21 174, 172.25 117.11, 272.56 2.41 M76.8 233.71 C134.74 166.1, 195.2 95.73, 278.21 2.01 M76.8 233.71 C151.07 147.58, 225.28 62.58, 278.21 2.01 M82.44 233.31 C155.95 149.59, 229.93 65.07, 283.19 2.37 M82.44 233.31 C158.4 144.8, 234.47 55.91, 283.19 2.37 M87.43 233.68 C154.09 155.87, 219.99 78.66, 288.84 1.98 M87.43 233.68 C141.57 171.34, 196.71 107.69, 288.84 1.98 M93.07 233.28 C156.22 160.36, 216.57 89.91, 293.82 2.34 M93.07 233.28 C170.17 145.85, 245.44 58.94, 293.82 2.34 M98.06 233.64 C156.63 169.27, 213.98 103.51, 299.47 1.94 M98.06 233.64 C158.7 160.54, 221.71 89.18, 299.47 1.94 M103.7 233.25 C180.73 144.34, 256.18 57.09, 304.45 2.3 M103.7 233.25 C181.33 142.78, 258.95 52.4, 304.45 2.3 M108.69 233.61 C178.22 151.87, 250.16 72.64, 310.1 1.91 M108.69 233.61 C187.73 144.57, 264.64 55.91, 310.1 1.91 M114.33 233.21 C155.02 186.38, 197.85 138.84, 315.08 2.27 M114.33 233.21 C175.02 160.54, 238.41 88.92, 315.08 2.27 M119.32 233.57 C190.07 148.81, 262.43 67.27, 320.73 1.88 M119.32 233.57 C196.21 143.95, 274.98 55.79, 320.73 1.88 M124.96 233.18 C167.61 184.77, 210.28 134.3, 325.71 2.24 M124.96 233.18 C173.12 177.39, 221.67 121.74, 325.71 2.24 M129.95 233.54 C192.97 159.98, 257.86 86.82, 331.36 1.84 M129.95 233.54 C184.2 169.58, 239 106.16, 331.36 1.84 M135.59 233.14 C202.96 154.38, 274.1 75.71, 336.34 2.2 M135.59 233.14 C183.1 180.33, 229.36 128.04, 336.34 2.2 M140.58 233.5 C195.96 174.74, 246.4 112.57, 341.99 1.81 M140.58 233.5 C217.96 143.85, 295.43 54, 341.99 1.81 M146.22 233.11 C209.75 160.23, 272.68 86.95, 346.97 2.17 M146.22 233.11 C214.34 157.33, 281.02 80.89, 346.97 2.17 M151.21 233.47 C228.12 145.92, 304.52 58.47, 352.62 1.77 M151.21 233.47 C218.86 157.67, 285.58 80.61, 352.62 1.77 M156.85 233.07 C227.61 150.03, 299.96 68.94, 357.6 2.13 M156.85 233.07 C226 154.24, 292.92 76.9, 357.6 2.13 M161.84 233.43 C225.09 160.66, 286.12 89.75, 363.25 1.74 M161.84 233.43 C224.32 162.71, 287.61 91.22, 363.25 1.74 M167.48 233.04 C225.98 167.92, 283.87 100.82, 368.23 2.1 M167.48 233.04 C220.18 171.61, 273 110.41, 368.23 2.1 M172.47 233.4 C220.2 179.73, 266.97 121.83, 373.88 1.7 M172.47 233.4 C249.18 143.04, 326.84 54.61, 373.88 1.7 M178.11 233 C225.11 178.18, 273.92 122.43, 378.86 2.06 M178.11 233 C228.2 172.64, 278.37 114.55, 378.86 2.06 M183.1 233.36 C224.67 185.42, 266.45 139.18, 383.85 2.42 M183.1 233.36 C261.95 142.22, 341.66 50.73, 383.85 2.42 M188.08 233.72 C255.83 155.43, 320.7 81.85, 389.49 2.03 M188.08 233.72 C245.89 169.59, 302.19 103.79, 389.49 2.03 M193.73 233.33 C272 143.42, 347.03 52.54, 394.48 2.39 M193.73 233.33 C249.24 171.49, 303.79 108.13, 394.48 2.39 M198.71 233.69 C273.09 145.96, 348.6 61.26, 400.12 1.99 M198.71 233.69 C246.12 177.58, 293.92 121.41, 400.12 1.99 M204.36 233.3 C248.05 182.61, 291.71 133.79, 405.11 2.35 M204.36 233.3 C263.24 161.99, 324.23 91.74, 405.11 2.35 M209.34 233.66 C288.74 140.99, 367.05 50.67, 410.75 1.96 M209.34 233.66 C260.13 176.71, 310.75 117.88, 410.75 1.96 M214.99 233.26 C267.73 170.06, 322.32 108.05, 415.74 2.32 M214.99 233.26 C267.97 170.73, 321.34 109.71, 415.74 2.32 M219.97 233.62 C281.34 161.21, 345.28 91.1, 421.38 1.93 M219.97 233.62 C294.25 148.09, 368.93 62.99, 421.38 1.93 M225.62 233.23 C303.61 144.29, 378.31 54.84, 426.37 2.29 M225.62 233.23 C288.59 162.1, 350.58 88.8, 426.37 2.29 M230.6 233.59 C277.4 182.1, 322.38 130.21, 432.01 1.89 M230.6 233.59 C283.31 173.67, 335.48 113.53, 432.01 1.89 M236.25 233.19 C302.24 156.4, 367.81 81.84, 437 2.25 M236.25 233.19 C288.08 171.75, 342.09 111.47, 437 2.25 M241.23 233.55 C317.02 148.3, 390.4 62.76, 442.64 1.86 M241.23 233.55 C310.27 156, 378 78.16, 442.64 1.86 M246.88 233.16 C313.87 157.83, 380.16 79.94, 446.98 2.97 M246.88 233.16 C312.36 156.01, 378.95 79.34, 446.98 2.97 M251.86 233.52 C320.07 154.3, 386.75 77.35, 450.65 4.84 M251.86 233.52 C294.96 181.63, 339.19 130.56, 450.65 4.84 M257.51 233.12 C331.8 147.6, 401.98 64.25, 454.98 5.96 M257.51 233.12 C335.19 145.85, 412.84 56.47, 454.98 5.96 M262.49 233.48 C311.67 174.58, 361.7 116.78, 458 8.58 M262.49 233.48 C317.04 171.43, 370.44 109.14, 458 8.58 M268.14 233.09 C318.78 176.33, 368.29 121.17, 460.36 11.96 M268.14 233.09 C324.96 167.64, 381.22 101.58, 460.36 11.96 M273.12 233.45 C316.69 183.88, 359.45 135.98, 463.38 14.58 M273.12 233.45 C326.59 173.15, 379.8 113.35, 463.38 14.58 M278.77 233.05 C347.29 154.79, 415.59 77.6, 465.09 18.72 M278.77 233.05 C349.52 151.19, 420.68 70.5, 465.09 18.72 M283.75 233.41 C329.05 181.72, 374.55 127.58, 465.48 24.36 M283.75 233.41 C343.63 164.49, 403.76 93.94, 465.48 24.36 M289.4 233.02 C346.52 167.86, 402.3 102.84, 466.53 29.25 M289.4 233.02 C351.51 159.71, 415.27 86.11, 466.53 29.25 M294.39 233.38 C351.41 168.25, 412.6 97.66, 467.58 34.14 M294.39 233.38 C361.68 155.11, 429.79 77.66, 467.58 34.14 M300.03 232.99 C348.43 178.01, 395.93 121.73, 467.98 39.78 M300.03 232.99 C335.67 191.39, 372.7 149.56, 467.98 39.78 M305.02 233.35 C370.11 157.26, 434.05 82.3, 467.72 46.18 M305.02 233.35 C352.6 177.25, 400.31 121.98, 467.72 46.18 M310 233.71 C352.32 182.6, 396.16 134.1, 468.11 51.82 M310 233.71 C357.49 178.78, 406.18 121.92, 468.11 51.82 M315.65 233.31 C366.4 174.76, 414.17 118.47, 467.85 58.22 M315.65 233.31 C367.5 173.85, 420.72 111.35, 467.85 58.22 M320.63 233.67 C359.75 189.99, 399.12 148.08, 467.59 64.62 M320.63 233.67 C361.43 186.19, 401.55 138.49, 467.59 64.62 M326.28 233.28 C372.31 180.7, 418.05 124.57, 467.98 70.26 M326.28 233.28 C375.33 174.72, 426.8 115.26, 467.98 70.26 M331.26 233.64 C366.33 195.26, 399.37 155.36, 467.72 76.66 M331.26 233.64 C379.65 179.16, 427.71 125.02, 467.72 76.66 M336.91 233.24 C364.75 202.17, 390.06 171.22, 468.12 82.3 M336.91 233.24 C383.53 177.22, 432.2 122.29, 468.12 82.3 M341.89 233.6 C393.13 177.19, 444.12 119.47, 467.86 88.7 M341.89 233.6 C366.32 205.2, 393.31 175.86, 467.86 88.7 M347.54 233.21 C379.11 201.11, 407.42 165.07, 467.59 95.1 M347.54 233.21 C389.02 185.41, 431.57 137.79, 467.59 95.1 M352.52 233.57 C388.93 192.54, 426.12 149.73, 467.99 100.74 M352.52 233.57 C389.22 192.58, 426.83 150.9, 467.99 100.74 M358.17 233.17 C395.49 189.78, 435.36 143.5, 467.73 107.14 M358.17 233.17 C390.66 197.66, 421.13 160.4, 467.73 107.14 M363.15 233.53 C403.27 189.52, 440.4 145.64, 468.12 112.78 M363.15 233.53 C387.37 204.36, 410.27 176.91, 468.12 112.78 M368.8 233.14 C402.49 196.52, 432.16 160.17, 467.86 119.18 M368.8 233.14 C400.87 196.27, 431.19 160.79, 467.86 119.18 M373.78 233.5 C408.59 193.74, 440.6 154.78, 467.6 125.57 M373.78 233.5 C398.3 205.58, 424.85 175.84, 467.6 125.57 M379.43 233.1 C408.7 199.85, 439.28 165.21, 467.99 131.22 M379.43 233.1 C412.12 194.08, 444.41 156.82, 467.99 131.22 M384.41 233.46 C404.37 210.54, 427.76 184.87, 467.73 137.62 M384.41 233.46 C402.7 211.73, 422.53 189.15, 467.73 137.62 M390.06 233.07 C415.12 205.8, 437.95 177.72, 468.13 143.26 M390.06 233.07 C415.89 203.1, 443.39 173.16, 468.13 143.26 M395.04 233.43 C412.6 212.78, 427.67 194.02, 467.87 149.66 M395.04 233.43 C416.24 210.87, 436.21 187.47, 467.87 149.66 M400.69 233.03 C422.9 208.75, 442.3 185.69, 467.6 156.05 M400.69 233.03 C420.52 210.15, 442.46 185.3, 467.6 156.05 M405.67 233.39 C423.32 216.39, 437.17 196.03, 468 161.7 M405.67 233.39 C423.87 213.18, 441.24 192.6, 468 161.7 M411.32 233 C430.88 209.95, 450.15 191.34, 467.74 168.1 M411.32 233 C428.58 212.1, 446.9 191.31, 467.74 168.1 M416.3 233.36 C434.18 211.17, 452.29 190.29, 468.13 173.74 M416.3 233.36 C429.89 216.85, 444.17 200.15, 468.13 173.74 M421.29 233.72 C436.93 212.19, 453.43 195.35, 467.87 180.14 M421.29 233.72 C431.4 221.63, 441.55 209.62, 467.87 180.14 M426.93 233.33 C436.11 224.36, 446.75 214.81, 467.61 186.53 M426.93 233.33 C440.79 218.71, 453.98 201.82, 467.61 186.53 M433.89 231.42 C444.86 221.22, 452.83 207.17, 468 192.18 M433.89 231.42 C446.6 217.13, 460.04 200.35, 468 192.18 M440.19 230.27 C445.9 223.71, 456.98 214.78, 466.43 200.08 M440.19 230.27 C450.26 219.3, 459.28 208.49, 466.43 200.08 M446.49 229.12 C450.35 225.24, 455.46 218.42, 465.51 207.24 M446.49 229.12 C449.77 223.49, 455.7 220.18, 465.51 207.24 M453.44 227.22 C455.83 223.43, 457.49 220.12, 462.63 216.65 M453.44 227.22 C456.81 223.45, 458.8 220.82, 462.63 216.65" stroke="#ced4da" stroke-width="0.5" fill="none"></path><path d="M32 0 M32 0 C140.06 -1.81, 250.1 -0.42, 433.85 0 M32 0 C147.41 0.69, 261.82 1.26, 433.85 0 M433.85 0 C453.86 0.64, 465.34 9.32, 465.85 32 M433.85 0 C457.43 1.32, 464.07 11.48, 465.85 32 M465.85 32 C468.05 70.44, 464.37 110.78, 465.85 199 M465.85 32 C465.05 88.01, 465.28 146.05, 465.85 199 M465.85 199 C464.52 219.63, 456.71 229.56, 433.85 231 M465.85 199 C465.86 220.68, 454.05 231.53, 433.85 231 M433.85 231 C322.79 231.54, 210.78 230.66, 32 231 M433.85 231 C299.26 233.5, 165.32 232.57, 32 231 M32 231 C11.62 230.34, 0.57 218.68, 0 199 M32 231 C12.43 228.72, 0.96 219.3, 0 199 M0 199 C-1.18 147.34, 0.95 93.83, 0 32 M0 199 C0.48 149.88, 0 99.93, 0 32 M0 32 C-1.88 11.22, 11.21 1.1, 32 0 M0 32 C-1.18 8.97, 10.77 2.07, 32 0" stroke="#000000" stroke-width="1" fill="none"></path></g><g transform="translate(55.04125958037844 458.3980318645131) rotate(0 211.61111450195312 61.200000000000045)"><text x="0" y="0" font-family="Virgil, Segoe UI Emoji" font-size="17.824846501417998px" fill="#d9480f" text-anchor="start" style="white-space: pre;" direction="ltr" dominant-baseline="text-before-edge">{</text><text x="0" y="20.4" font-family="Virgil, Segoe UI Emoji" font-size="17.824846501417998px" fill="#d9480f" text-anchor="start" style="white-space: pre;" direction="ltr" dominant-baseline="text-before-edge">AWS_ACCESS_ID: "AKIASP2TPHJS45BZU3LO",</text><text x="0" y="40.8" font-family="Virgil, Segoe UI Emoji" font-size="17.824846501417998px" fill="#d9480f" text-anchor="start" style="white-space: pre;" direction="ltr" dominant-baseline="text-before-edge">AWS_SECRET_KEY: "Puph7D/ZMBahXyBZ7rR...",</text><text x="0" y="61.199999999999996" font-family="Virgil, Segoe UI Emoji" font-size="17.824846501417998px" fill="#d9480f" text-anchor="start" style="white-space: pre;" direction="ltr" dominant-baseline="text-before-edge">REGION: "us-east-2"</text><text x="0" y="81.6" font-family="Virgil, Segoe UI Emoji" font-size="17.824846501417998px" fill="#d9480f" text-anchor="start" style="white-space: pre;" direction="ltr" dominant-baseline="text-before-edge">}</text><text x="0" y="102" font-family="Virgil, Segoe UI Emoji" font-size="17.824846501417998px" fill="#d9480f" text-anchor="start" style="white-space: pre;" direction="ltr" dominant-baseline="text-before-edge"></text></g><g transform="translate(367.58540976793915 680.0267557309712) rotate(0 240.12222290039074 11.400000000000091)"><text x="0" y="0" font-family="Virgil, Segoe UI Emoji" font-size="19.25px" fill="#000000" text-anchor="start" style="white-space: pre;" direction="ltr" dominant-baseline="text-before-edge">const encryptedData = await phase.encrypt(data)</text></g><g stroke-linecap="round" transform="translate(706.8002331420994 385.1848497307815) rotate(0 232.92499999999995 115.5)"><path d="M7.86 8.16 C7.86 8.16, 7.86 8.16, 7.86 8.16 M7.86 8.16 C7.86 8.16, 7.86 8.16, 7.86 8.16 M3.66 19.09 C9.44 14.6, 15.5 8.14, 18.1 2.48 M3.66 19.09 C9.89 13.44, 15.49 5.88, 18.1 2.48 M2.75 26.24 C9.25 17.96, 15.77 10.57, 24.4 1.33 M2.75 26.24 C9.07 18.72, 15.58 10.46, 24.4 1.33 M2.48 32.64 C9.26 23.74, 18.13 14.53, 30.7 0.18 M2.48 32.64 C12.45 20.62, 21.72 10.16, 30.7 0.18 M2.88 38.28 C12.25 30.47, 20.6 20.88, 34.37 2.05 M2.88 38.28 C15.41 23.09, 26.89 10.71, 34.37 2.05 M2.62 44.68 C15.19 33.39, 25.89 21.35, 39.36 2.41 M2.62 44.68 C12.45 31.42, 23.73 20.29, 39.36 2.41 M2.36 51.07 C14.79 38.05, 23.01 29.54, 45 2.02 M2.36 51.07 C19.21 32.18, 33.67 13.95, 45 2.02 M2.75 56.72 C18.17 38.69, 34.71 19.09, 49.99 2.38 M2.75 56.72 C18.66 38.98, 33.24 21.36, 49.99 2.38 M2.49 63.11 C16.09 47.74, 29.1 32.81, 55.63 1.98 M2.49 63.11 C23.64 39.26, 45.03 15.12, 55.63 1.98 M2.23 69.51 C12.01 55.98, 26.14 42.18, 60.62 2.34 M2.23 69.51 C20.73 47.03, 39.65 25.74, 60.62 2.34 M2.62 75.16 C25.44 50.79, 47.3 22.4, 66.26 1.95 M2.62 75.16 C18.84 55.09, 36.01 35.18, 66.26 1.95 M2.36 81.55 C28.75 53.11, 55.9 22.81, 71.25 2.31 M2.36 81.55 C24.96 57.54, 46.82 32.04, 71.25 2.31 M2.76 87.2 C26.9 62.78, 47.38 34.57, 76.89 1.91 M2.76 87.2 C26.44 61.16, 49.54 33.48, 76.89 1.91 M2.49 93.59 C31.08 62.51, 59.73 29.3, 81.88 2.27 M2.49 93.59 C23.25 70.71, 41.82 47.34, 81.88 2.27 M2.23 99.99 C27.14 70.46, 53.55 36.88, 87.52 1.88 M2.23 99.99 C35.79 62.23, 68.58 24.05, 87.52 1.88 M2.63 105.64 C28.8 72.91, 56.04 44.93, 92.51 2.24 M2.63 105.64 C25.33 79.87, 47.31 52.94, 92.51 2.24 M2.37 112.03 C30.26 76.47, 62.28 44.67, 98.15 1.85 M2.37 112.03 C40.53 69.82, 77.43 27.03, 98.15 1.85 M2.1 118.43 C32.89 84.21, 61.66 50.31, 103.14 2.21 M2.1 118.43 C40.95 74.47, 79.24 30.33, 103.14 2.21 M2.5 124.07 C27.78 96.07, 50.78 68.55, 108.78 1.81 M2.5 124.07 C39.78 79.71, 77.67 37.16, 108.78 1.81 M2.24 130.47 C45.76 80.82, 88.97 31.7, 113.77 2.17 M2.24 130.47 C27.62 100.54, 54.05 70.88, 113.77 2.17 M2.63 136.11 C48.54 86.13, 90.61 34.29, 119.41 1.78 M2.63 136.11 C26.46 107.72, 50.26 82, 119.41 1.78 M2.37 142.51 C42.87 95.04, 81.93 48.78, 124.4 2.14 M2.37 142.51 C50.39 88.5, 98.12 34.12, 124.4 2.14 M2.11 148.91 C34.75 110.36, 69.2 72.99, 130.04 1.74 M2.11 148.91 C47.64 95.69, 93.58 42.07, 130.04 1.74 M2.5 154.55 C55.25 93.46, 110.51 32.64, 135.03 2.1 M2.5 154.55 C47.7 103.48, 91.16 52.72, 135.03 2.1 M2.24 160.95 C41.89 116.53, 82.59 72.16, 140.67 1.71 M2.24 160.95 C46.3 110.03, 92.16 57.13, 140.67 1.71 M1.98 167.35 C33.6 129.49, 68.01 93.93, 145.66 2.07 M1.98 167.35 C52.39 108.52, 103.03 51.19, 145.66 2.07 M2.38 172.99 C51.98 115.82, 100.68 58.79, 150.65 2.43 M2.38 172.99 C54.42 114.78, 107.43 54.93, 150.65 2.43 M2.11 179.39 C49.68 123.56, 99.96 69.15, 156.29 2.03 M2.11 179.39 C35.8 142.36, 68.44 104.31, 156.29 2.03 M2.51 185.03 C64.22 111.6, 128.14 37.88, 161.28 2.39 M2.51 185.03 C53.38 127.35, 102.88 71.31, 161.28 2.39 M2.25 191.43 C63.5 124.27, 120.71 56.15, 166.92 2 M2.25 191.43 C51.66 134.1, 101.07 77.63, 166.92 2 M0.67 199.34 C50.37 143.97, 96.41 88.03, 171.91 2.36 M0.67 199.34 C42.6 149.74, 86.83 98.6, 171.91 2.36 M1.07 204.98 C58.66 140.55, 114.29 74.61, 177.55 1.96 M1.07 204.98 C51.88 146.64, 103.61 87.21, 177.55 1.96 M2.12 209.87 C61.86 143.16, 119.03 78.96, 182.54 2.32 M2.12 209.87 C50.74 151.81, 98.5 97.12, 182.54 2.32 M3.83 214 C67.77 142.41, 130.48 70.68, 188.18 1.93 M3.83 214 C51.61 159.74, 98.63 107.08, 188.18 1.93 M4.88 218.89 C57.4 157.09, 111.66 95.06, 193.17 2.29 M4.88 218.89 C79.96 134.85, 153.58 49.97, 193.17 2.29 M7.9 221.52 C52.35 167.81, 97.77 114.36, 198.81 1.9 M7.9 221.52 C77.94 142.56, 147.55 62.38, 198.81 1.9 M10.26 224.89 C64.42 162.27, 117.9 100.73, 203.8 2.26 M10.26 224.89 C67.96 158.22, 127.49 90.76, 203.8 2.26 M13.28 227.52 C52.18 180.58, 95.25 133.99, 209.44 1.86 M13.28 227.52 C92.85 137.96, 170.43 48.71, 209.44 1.86 M17.61 228.63 C58.39 182.11, 98.7 136.32, 214.43 2.22 M17.61 228.63 C64.56 173.92, 112.17 119.75, 214.43 2.22 M21.94 229.75 C85.6 157.4, 148.14 82.56, 220.07 1.83 M21.94 229.75 C63.85 180.96, 107.01 129.99, 220.07 1.83 M25.61 231.62 C89.13 157.13, 151.42 84.69, 225.06 2.19 M25.61 231.62 C81.4 168.74, 137.8 105.48, 225.06 2.19 M30.6 231.98 C73.05 182.4, 118.45 130.81, 230.7 1.79 M30.6 231.98 C89.25 164.03, 148.99 94.06, 230.7 1.79 M34.93 233.09 C92.06 164.74, 151.62 98.83, 235.69 2.15 M34.93 233.09 C83.93 174.52, 134.29 115.96, 235.69 2.15 M39.92 233.45 C88.57 178.59, 135.01 125.79, 241.33 1.76 M39.92 233.45 C80.43 185.62, 120.96 139.01, 241.33 1.76 M45.56 233.06 C110.17 159.29, 176 82.03, 246.32 2.12 M45.56 233.06 C93.25 178.42, 141.86 122.58, 246.32 2.12 M50.55 233.42 C104.18 176.33, 153.16 117.78, 251.96 1.72 M50.55 233.42 C111.65 165.35, 170.74 96.93, 251.96 1.72 M56.19 233.02 C105.54 175.35, 155.69 119.68, 256.95 2.08 M56.19 233.02 C110.1 172.06, 164.42 109.97, 256.95 2.08 M61.18 233.38 C112.54 172.31, 165.04 113.49, 262.59 1.69 M61.18 233.38 C109.89 178.72, 158.04 123.53, 262.59 1.69 M66.82 232.99 C107.22 184.85, 145.92 138.6, 267.58 2.05 M66.82 232.99 C110.88 185, 151.79 136.47, 267.58 2.05 M71.81 233.35 C115.98 184.26, 162.28 131.39, 272.56 2.41 M71.81 233.35 C131.35 163.2, 191.38 94.51, 272.56 2.41 M76.8 233.71 C154.12 147.51, 229.69 60.73, 278.21 2.01 M76.8 233.71 C134.64 165.78, 192.03 97.65, 278.21 2.01 M82.44 233.31 C150.79 153.16, 218.57 74.05, 283.19 2.37 M82.44 233.31 C131.23 181.17, 177.53 126.34, 283.19 2.37 M87.43 233.68 C141.15 170.72, 193.38 108.54, 288.84 1.98 M87.43 233.68 C164.54 146.48, 241.52 57.63, 288.84 1.98 M93.07 233.28 C142.46 175.43, 192.07 120.18, 293.82 2.34 M93.07 233.28 C135.54 187.57, 176.16 139.79, 293.82 2.34 M98.06 233.64 C139.32 183.1, 184.34 135.91, 299.47 1.94 M98.06 233.64 C160.66 161.67, 221.74 90.57, 299.47 1.94 M103.7 233.25 C149.06 181.6, 190.01 131.23, 304.45 2.3 M103.7 233.25 C155.68 172.94, 207.38 111.97, 304.45 2.3 M108.69 233.61 C162.23 169.41, 217.85 104.16, 310.1 1.91 M108.69 233.61 C173.3 158.55, 239.99 82.76, 310.1 1.91 M114.33 233.21 C175.31 161.8, 236.56 90.72, 315.08 2.27 M114.33 233.21 C165.76 171.48, 220.45 110.56, 315.08 2.27 M119.32 233.57 C186.4 154, 255.17 76.71, 320.73 1.88 M119.32 233.57 C172.18 170.39, 225.91 107.23, 320.73 1.88 M124.96 233.18 C174.28 174.33, 222.74 118.48, 325.71 2.24 M124.96 233.18 C201.63 147.76, 275.74 60.71, 325.71 2.24 M129.95 233.54 C170.69 186.1, 211.47 137.96, 331.36 1.84 M129.95 233.54 C208.12 142.23, 287.41 51.01, 331.36 1.84 M135.59 233.14 C206.76 149.39, 281.04 66.61, 336.34 2.2 M135.59 233.14 C204 157.66, 270.58 80.65, 336.34 2.2 M140.58 233.5 C205.15 160.39, 271.52 83.43, 341.99 1.81 M140.58 233.5 C202.51 160.27, 264.16 89.26, 341.99 1.81 M146.22 233.11 C194.44 177.76, 243.06 122.8, 346.97 2.17 M146.22 233.11 C224.07 141.2, 303.77 50.79, 346.97 2.17 M151.21 233.47 C203.51 176.1, 254.14 114.8, 352.62 1.77 M151.21 233.47 C210.53 164.43, 269.97 96.7, 352.62 1.77 M156.85 233.07 C206.89 175.92, 253.52 120.41, 357.6 2.13 M156.85 233.07 C199.75 184.64, 241.17 137.05, 357.6 2.13 M161.84 233.43 C241.37 143.11, 321.68 49.33, 363.25 1.74 M161.84 233.43 C232.76 151.9, 301.47 72.58, 363.25 1.74 M167.48 233.04 C209.39 186.34, 251.42 138.9, 368.23 2.1 M167.48 233.04 C232.48 157.29, 297.93 81.27, 368.23 2.1 M172.47 233.4 C225.13 172.95, 277.64 113.33, 373.88 1.7 M172.47 233.4 C237.65 158.96, 303.83 82.07, 373.88 1.7 M178.11 233 C249.7 149.28, 322.98 67.88, 378.86 2.06 M178.11 233 C235.38 165.6, 293.68 98.47, 378.86 2.06 M183.1 233.36 C261.74 144.68, 339.09 53.68, 383.85 2.42 M183.1 233.36 C231.89 176.45, 282.59 118.29, 383.85 2.42 M188.08 233.72 C267.58 140.12, 348.09 49.01, 389.49 2.03 M188.08 233.72 C258.36 154.5, 329.28 73.66, 389.49 2.03 M193.73 233.33 C248.03 172.75, 301.21 114.14, 394.48 2.39 M193.73 233.33 C267.68 149.89, 340.38 65.57, 394.48 2.39 M198.71 233.69 C277.75 142.29, 354.26 51.03, 400.12 1.99 M198.71 233.69 C267.1 155.83, 335.31 77.06, 400.12 1.99 M204.36 233.3 C276.25 148.79, 352.35 63.86, 405.11 2.35 M204.36 233.3 C260.88 167.65, 317.4 101.21, 405.11 2.35 M209.34 233.66 C269.31 168.42, 325.82 101.72, 410.75 1.96 M209.34 233.66 C251.27 185.38, 293.62 138.24, 410.75 1.96 M214.99 233.26 C281.17 156.54, 351.79 76.46, 415.74 2.32 M214.99 233.26 C265.72 175.03, 315.11 117.05, 415.74 2.32 M219.97 233.62 C261.68 186.16, 304.81 136.7, 421.38 1.93 M219.97 233.62 C277.75 166.04, 337.18 97.87, 421.38 1.93 M225.62 233.23 C270.98 180.49, 318.62 129.98, 426.37 2.29 M225.62 233.23 C280.55 169.98, 336.83 105.89, 426.37 2.29 M230.6 233.59 C300.16 150.46, 372.4 69.12, 432.01 1.89 M230.6 233.59 C275.87 179.7, 324.04 125.71, 432.01 1.89 M236.25 233.19 C276.44 186.79, 317.72 139.69, 437 2.25 M236.25 233.19 C277.96 185.11, 319.23 137.79, 437 2.25 M241.23 233.55 C305.53 159.98, 371.94 85.15, 442.64 1.86 M241.23 233.55 C295.29 172.46, 349.95 110.22, 442.64 1.86 M246.88 233.16 C301.2 169.51, 355.47 108.58, 446.98 2.97 M246.88 233.16 C295.37 177.46, 343.39 121.54, 446.98 2.97 M251.86 233.52 C318.06 154.07, 387.94 78.29, 450.65 4.84 M251.86 233.52 C316.36 159.12, 380.73 84.14, 450.65 4.84 M257.51 233.12 C331.25 151.13, 403.19 67.48, 454.98 5.96 M257.51 233.12 C301.29 180.69, 346.08 130.01, 454.98 5.96 M262.49 233.48 C312.6 175.78, 362.69 117.61, 458 8.58 M262.49 233.48 C330.75 154.75, 400.12 76.71, 458 8.58 M268.14 233.09 C316.38 179.94, 363.6 124.93, 460.36 11.96 M268.14 233.09 C336.92 153.91, 405.27 75.35, 460.36 11.96 M273.12 233.45 C347.18 149.47, 420.84 66.67, 463.38 14.58 M273.12 233.45 C340.45 152, 410.42 71.92, 463.38 14.58 M278.77 233.05 C353.09 148.73, 425.98 67.05, 465.09 18.72 M278.77 233.05 C329.67 172.43, 381.38 113, 465.09 18.72 M283.75 233.41 C355.17 150.39, 423.42 70.73, 465.48 24.36 M283.75 233.41 C320.37 189.31, 357.96 147.34, 465.48 24.36 M289.4 233.02 C343.61 169.07, 400.93 105.33, 466.53 29.25 M289.4 233.02 C355.95 154.58, 423.81 77.21, 466.53 29.25 M294.39 233.38 C337.06 182.39, 379.71 134.65, 467.58 34.14 M294.39 233.38 C361.44 153.68, 430.35 73.96, 467.58 34.14 M300.03 232.99 C341.55 184, 382.45 138.55, 467.98 39.78 M300.03 232.99 C353.29 173.62, 405.04 114.28, 467.98 39.78 M305.02 233.35 C352.31 180.22, 399.11 125.14, 467.72 46.18 M305.02 233.35 C351.11 180.91, 393.62 131.68, 467.72 46.18 M310 233.71 C350.43 186.16, 390.53 138.33, 468.11 51.82 M310 233.71 C348.83 189.07, 388.93 143.25, 468.11 51.82 M315.65 233.31 C369.03 174.62, 417.3 116.93, 467.85 58.22 M315.65 233.31 C352.51 188.42, 391.29 144.59, 467.85 58.22 M320.63 233.67 C372.62 175.86, 421.94 117.99, 467.59 64.62 M320.63 233.67 C356.79 192.64, 391.45 153.22, 467.59 64.62 M326.28 233.28 C378.47 175.06, 433.11 112.53, 467.98 70.26 M326.28 233.28 C376.91 174.37, 429.59 114.09, 467.98 70.26 M331.26 233.64 C373.77 185.96, 418.34 135.39, 467.72 76.66 M331.26 233.64 C367.46 190.5, 404.54 149.1, 467.72 76.66 M336.91 233.24 C370.47 191.63, 404.96 152.85, 468.12 82.3 M336.91 233.24 C379.99 182.56, 422.8 132.99, 468.12 82.3 M341.89 233.6 C379.45 191.3, 419.9 148.13, 467.86 88.7 M341.89 233.6 C388.08 181.02, 434.1 128.27, 467.86 88.7 M347.54 233.21 C379.4 197.99, 407.9 162.06, 467.59 95.1 M347.54 233.21 C378.74 196.24, 411.15 158.3, 467.59 95.1 M352.52 233.57 C386.22 196.04, 418.66 157.49, 467.99 100.74 M352.52 233.57 C388.97 191.02, 425.17 150.39, 467.99 100.74 M358.17 233.17 C387.64 198.73, 418.31 164.45, 467.73 107.14 M358.17 233.17 C379.81 207.77, 403.04 182.12, 467.73 107.14 M363.15 233.53 C402.12 190.26, 443.02 143.94, 468.12 112.78 M363.15 233.53 C399.82 189.33, 436.39 147.06, 468.12 112.78 M368.8 233.14 C389.64 208.86, 413.94 185.72, 467.86 119.18 M368.8 233.14 C403.26 194.59, 437.75 153.28, 467.86 119.18 M373.78 233.5 C400.06 203.93, 423.48 172.54, 467.6 125.57 M373.78 233.5 C397.56 206.02, 420.47 179.99, 467.6 125.57 M379.43 233.1 C402.56 207.95, 421.27 181.73, 467.99 131.22 M379.43 233.1 C398.59 208.74, 418.45 185.45, 467.99 131.22 M384.41 233.46 C406.69 208.12, 425.7 187.51, 467.73 137.62 M384.41 233.46 C406.64 210.86, 426.52 186.59, 467.73 137.62 M390.06 233.07 C413.55 206.01, 440.96 174.2, 468.13 143.26 M390.06 233.07 C417.08 201.45, 445.83 169.02, 468.13 143.26 M395.04 233.43 C422.66 205.34, 446.44 175.02, 467.87 149.66 M395.04 233.43 C418.42 205.58, 441.49 179.63, 467.87 149.66 M400.69 233.03 C418.91 212.63, 437.45 190.88, 467.6 156.05 M400.69 233.03 C422.69 207.96, 443.97 182.08, 467.6 156.05 M405.67 233.39 C416.87 218.08, 431.25 205.56, 468 161.7 M405.67 233.39 C421.66 212.61, 438.93 192.56, 468 161.7 M411.32 233 C428.6 215.56, 443.09 194.93, 467.74 168.1 M411.32 233 C433.39 208.75, 455.5 183.8, 467.74 168.1 M416.3 233.36 C427.66 221.16, 439.64 208.44, 468.13 173.74 M416.3 233.36 C433.26 215.14, 447.48 196.88, 468.13 173.74 M421.29 233.72 C435.62 219.26, 446.4 204.76, 467.87 180.14 M421.29 233.72 C432.38 222.45, 441.19 211.43, 467.87 180.14 M426.93 233.33 C441.9 214.14, 458.85 196.28, 467.61 186.53 M426.93 233.33 C436.64 221.52, 445.8 211.02, 467.61 186.53 M433.89 231.42 C443.37 220.84, 449.7 210.39, 468 192.18 M433.89 231.42 C445.59 218.66, 455.76 206.07, 468 192.18 M440.19 230.27 C445.91 222.58, 454.76 213.91, 466.43 200.08 M440.19 230.27 C444.92 222.9, 451.61 218.2, 466.43 200.08 M446.49 229.12 C453.36 221.03, 462.14 212.86, 465.51 207.24 M446.49 229.12 C452.25 221.2, 459.4 213.31, 465.51 207.24 M453.44 227.22 C457.76 222.84, 458.63 219.05, 462.63 216.65 M453.44 227.22 C456.43 223.93, 459 221.34, 462.63 216.65" stroke="#40c057" stroke-width="0.5" fill="none"></path><path d="M32 0 M32 0 C183.06 0.49, 335.3 0.41, 433.85 0 M32 0 C137.64 -0.37, 242.66 -1.26, 433.85 0 M433.85 0 C456.65 1.8, 464.42 8.94, 465.85 32 M433.85 0 C454.18 -2.14, 464.63 12.67, 465.85 32 M465.85 32 C467.35 93.54, 465.2 155.08, 465.85 199 M465.85 32 C465.86 99.35, 465.33 166.45, 465.85 199 M465.85 199 C466.29 220.64, 453.92 229.06, 433.85 231 M465.85 199 C467.43 221.16, 453.62 229.56, 433.85 231 M433.85 231 C297.04 232.9, 160.3 232.42, 32 231 M433.85 231 C288.22 232.93, 142.99 232.13, 32 231 M32 231 C9.99 229.95, 1.1 220.28, 0 199 M32 231 C9.15 229.09, -1.98 220.62, 0 199 M0 199 C-0.67 147.18, -0.79 92.02, 0 32 M0 199 C-0.62 140.17, 0.55 79.92, 0 32 M0 32 C-1.67 10.33, 9.97 -1.72, 32 0 M0 32 C-0.06 11.73, 12.77 1.08, 32 0" stroke="#000000" stroke-width="1" fill="none"></path></g><g transform="translate(717.3877331420999 461.22234973078093) rotate(0 215.96665954589844 22.799999999999955)"><text x="0" y="0" font-family="Virgil, Segoe UI Emoji" font-size="19.25px" fill="#000000" text-anchor="start" style="white-space: pre;" direction="ltr" dominant-baseline="text-before-edge">ph:dataType:ephPublicKey:ciphertext+nonce:tag</text><text x="0" y="22.8" font-family="Virgil, Segoe UI Emoji" font-size="19.25px" fill="#000000" text-anchor="start" style="white-space: pre;" direction="ltr" dominant-baseline="text-before-edge"></text></g><g transform="translate(845.1157738838292 623.890548980758) rotate(0 81.5586837678452 13.470466166650795)"><text x="0" y="0" font-family="Virgil, Segoe UI Emoji" font-size="22.450776944418035px" fill="#000000" text-anchor="start" style="white-space: pre;" direction="ltr" dominant-baseline="text-before-edge">encryptedData</text></g><g transform="translate(212.75504501905175 627.2581655224208) rotate(0 27.6892908510913 13.470466166650795)"><text x="0" y="0" font-family="Virgil, Segoe UI Emoji" font-size="22.450776944418035px" fill="#000000" text-anchor="start" style="white-space: pre;" direction="ltr" dominant-baseline="text-before-edge">data</text></g><g stroke-linecap="round"><g transform="translate(498.11657207169947 511.66438998325793) rotate(0 105.853188014343 -1.1721575647966347)"><path d="M0.71 -0.35 C35.99 -0.37, 176.98 -0.14, 212.08 -0.52 M-0.38 -1.57 C34.76 -1.87, 176.34 -2, 211.48 -2.05" stroke="#000000" stroke-width="1" fill="none"></path></g><g transform="translate(498.11657207169947 511.66438998325793) rotate(0 105.853188014343 -1.1721575647966347)"><path d="M182.73 9.36 C194.67 4.43, 200.58 0, 211.4 -3.19 M183.41 8.85 C190.49 5.53, 197.58 2.22, 210.58 -2.22" stroke="#000000" stroke-width="1" fill="none"></path></g><g transform="translate(498.11657207169947 511.66438998325793) rotate(0 105.853188014343 -1.1721575647966347)"><path d="M182.7 -11.17 C194.59 -9.21, 200.51 -6.77, 211.4 -3.19 M183.39 -11.67 C190.34 -9.51, 197.44 -7.34, 210.58 -2.22" stroke="#000000" stroke-width="1" fill="none"></path></g></g><mask></mask><g stroke-linecap="round" transform="translate(10 10) rotate(0 612.1428571428571 355)"><path d="M32 0 M32 0 C291.71 -1, 551.61 -0.87, 1192.29 0 M32 0 C368.84 -4.6, 705.4 -4.26, 1192.29 0 M1192.29 0 C1213.05 -1.36, 1223.73 11, 1224.29 32 M1192.29 0 C1214.1 -2.09, 1222.07 10.22, 1224.29 32 M1224.29 32 C1224.89 286.35, 1223.92 539.22, 1224.29 678 M1224.29 32 C1224.02 252.72, 1223.45 474.43, 1224.29 678 M1224.29 678 C1223 697.93, 1212.62 710.56, 1192.29 710 M1224.29 678 C1222.5 699.23, 1215.09 710.17, 1192.29 710 M1192.29 710 C745.55 706.85, 297.47 708.09, 32 710 M1192.29 710 C958.83 714.43, 725.82 714.39, 32 710 M32 710 C8.68 710.61, 1.3 698.72, 0 678 M32 710 C8.97 711.98, -0.19 700.25, 0 678 M0 678 C-1.13 493.23, -1.5 309.08, 0 32 M0 678 C1.09 429.02, 1.24 179.25, 0 32 M0 32 C0.36 11.45, 11.47 -0.67, 32 0 M0 32 C0.42 10.36, 8.99 0.48, 32 0" stroke="#000000" stroke-width="1" fill="none"></path></g><g stroke-linecap="round" transform="translate(14.285714285714448 11.428571428571558) rotate(0 607.8571428571428 28.571428571428896)"><path d="M14.29 0 M14.29 0 C405.44 -1.4, 795.32 -1.26, 1201.43 0 M14.29 0 C302.97 1.48, 591.56 1.45, 1201.43 0 M1201.43 0 C1211.36 -0.13, 1216.8 4.75, 1215.71 14.29 M1201.43 0 C1208.8 -2.11, 1215.61 2.92, 1215.71 14.29 M1215.71 14.29 C1214.98 21.56, 1214.37 33.93, 1215.71 42.86 M1215.71 14.29 C1215.7 26.03, 1215.24 36.74, 1215.71 42.86 M1215.71 42.86 C1216.35 54.35, 1212.55 56.26, 1201.43 57.14 M1215.71 42.86 C1215.38 53.86, 1212.41 57.69, 1201.43 57.14 M1201.43 57.14 C800.54 53.92, 399.95 54.26, 14.29 57.14 M1201.43 57.14 C737.85 60.62, 274.85 60.88, 14.29 57.14 M14.29 57.14 C3.1 57.17, 1.07 54.24, 0 42.86 M14.29 57.14 C5.49 55.7, 0.91 52.53, 0 42.86 M0 42.86 C1.49 34.87, 0.07 31.5, 0 14.29 M0 42.86 C-0.3 33.39, -0.8 25.2, 0 14.29 M0 14.29 C0.54 5.47, 5 1.8, 14.29 0 M0 14.29 C0.59 5.78, 4.98 0.31, 14.29 0" stroke="#000000" stroke-width="1" fill="none"></path></g><g stroke-linecap="round" transform="translate(29.26814612115254 30.69671754972387) rotate(0 9.999999999999886 9.285714285714448)"><path d="M14.45 0.45 C16.36 1.21, 18.61 3.71, 19.35 5.59 C20.09 7.46, 19.38 9.85, 18.88 11.7 C18.38 13.54, 18 15.45, 16.36 16.65 C14.71 17.84, 11.21 19.14, 9.01 18.87 C6.82 18.59, 4.71 16.52, 3.19 14.98 C1.67 13.43, 0.18 11.56, -0.1 9.61 C-0.38 7.66, 0.14 4.78, 1.52 3.28 C2.9 1.78, 5.91 0.83, 8.18 0.6 C10.46 0.37, 13.99 1.64, 15.15 1.91 C16.32 2.17, 15.35 2.27, 15.19 2.19 M8.03 0.22 C10.16 0.03, 14.61 0.2, 16.72 1.22 C18.83 2.24, 20.47 4.4, 20.69 6.34 C20.92 8.28, 18.97 11.19, 18.08 12.87 C17.19 14.54, 16.96 15.49, 15.34 16.4 C13.72 17.3, 10.4 18.32, 8.35 18.29 C6.3 18.25, 4.24 18.03, 3.04 16.19 C1.84 14.36, 1.21 9.31, 1.14 7.26 C1.07 5.21, 1.06 5.19, 2.61 3.87 C4.17 2.56, 9.16 0.03, 10.48 -0.62 C11.79 -1.27, 10.7 -0.33, 10.5 -0.01" stroke="none" stroke-width="0" fill="#fa5252"></path><path d="M14.15 1.38 C15.87 1.83, 17.81 3.06, 18.56 4.72 C19.31 6.37, 19.13 9.1, 18.66 11.3 C18.2 13.51, 17.51 16.67, 15.78 17.95 C14.05 19.23, 10.45 19.35, 8.28 18.99 C6.1 18.62, 4.19 17.17, 2.71 15.78 C1.24 14.38, -0.32 12.48, -0.57 10.59 C-0.82 8.71, -0.16 6.33, 1.23 4.45 C2.62 2.56, 5.44 -0.26, 7.77 -0.71 C10.1 -1.16, 13.84 1.35, 15.21 1.76 C16.58 2.17, 16.08 1.56, 15.99 1.76 M7.72 0.78 C9.97 0.05, 12.38 0.87, 14.27 1.69 C16.16 2.52, 18.1 4.28, 19.08 5.71 C20.07 7.14, 20.7 8.67, 20.18 10.26 C19.66 11.85, 17.54 13.88, 15.97 15.25 C14.39 16.62, 12.96 18.46, 10.75 18.5 C8.54 18.54, 4.55 16.59, 2.71 15.51 C0.88 14.42, 0.08 13.91, -0.25 11.99 C-0.59 10.08, -0.31 5.88, 0.71 4.03 C1.73 2.18, 5.15 1.3, 5.87 0.89 C6.59 0.48, 5.03 1.51, 5.04 1.58" stroke="#000000" stroke-width="1" fill="none"></path></g><g stroke-linecap="round" transform="translate(61.93259909779658 30.052704493683905) rotate(0 9.999999999999886 9.285714285714448)"><path d="M7.79 0.06 C9.7 -0.55, 12.42 -0.83, 14.44 0.25 C16.47 1.33, 19.08 4.47, 19.96 6.56 C20.84 8.65, 20.52 11.06, 19.71 12.77 C18.91 14.47, 17.05 15.73, 15.11 16.8 C13.17 17.86, 10.33 19.28, 8.09 19.15 C5.85 19.02, 2.86 17.78, 1.66 16.04 C0.46 14.29, 0.65 10.9, 0.89 8.66 C1.13 6.43, 1.85 4.15, 3.1 2.62 C4.35 1.1, 7.43 0.08, 8.39 -0.47 C9.36 -1.01, 8.67 -0.95, 8.88 -0.66 M10.07 1.47 C12.08 1.32, 14.55 -0.03, 16.34 1.01 C18.13 2.05, 20.34 5.72, 20.8 7.71 C21.26 9.7, 20.49 11.05, 19.11 12.95 C17.73 14.84, 14.41 18.32, 12.52 19.05 C10.63 19.79, 9.45 17.98, 7.74 17.37 C6.04 16.75, 3.41 17.03, 2.32 15.36 C1.22 13.69, 1.22 9.44, 1.18 7.35 C1.13 5.26, 0.54 4.25, 2.03 2.83 C3.53 1.41, 8.8 -0.7, 10.14 -1.17 C11.49 -1.65, 10.02 -0.32, 10.11 -0.03" stroke="none" stroke-width="0" fill="#fab005"></path><path d="M12.83 1.02 C14.66 1.36, 16.64 2.22, 17.73 3.94 C18.83 5.66, 19.45 9.39, 19.39 11.33 C19.33 13.27, 18.89 14.24, 17.37 15.61 C15.85 16.97, 12.58 19.39, 10.26 19.51 C7.94 19.64, 4.96 17.85, 3.45 16.35 C1.94 14.86, 1.49 12.57, 1.2 10.56 C0.91 8.55, 0.95 6, 1.71 4.29 C2.46 2.57, 3.52 0.97, 5.74 0.28 C7.96 -0.4, 13.3 -0.13, 15.03 0.17 C16.75 0.48, 16.1 1.72, 16.12 2.13 M8.92 -0.14 C10.93 -0.87, 13.85 -1.06, 15.59 0.1 C17.34 1.26, 18.87 4.66, 19.37 6.81 C19.87 8.96, 19.18 11.19, 18.59 13.01 C17.99 14.84, 17.44 16.73, 15.83 17.78 C14.21 18.83, 10.98 19.74, 8.9 19.31 C6.81 18.88, 4.98 16.88, 3.32 15.19 C1.66 13.51, -0.87 11.1, -1.07 9.2 C-1.27 7.31, 0.69 5.43, 2.12 3.8 C3.54 2.18, 6.45 0.05, 7.49 -0.53 C8.54 -1.1, 8.18 0.25, 8.38 0.36" stroke="#000000" stroke-width="1" fill="none"></path></g><g stroke-linecap="round" transform="translate(153.8583559172041 24.366246619252706) rotate(0 457.05164507367306 13.391514778664487)"><path d="M6.7 0 M6.7 0 C282.54 0.19, 558.21 1.23, 907.41 0 M6.7 0 C288.65 -2.29, 569.59 -2.26, 907.41 0 M907.41 0 C911.05 1.2, 912.3 1.45, 914.1 6.7 M907.41 0 C911.12 0.18, 913.76 0.97, 914.1 6.7 M914.1 6.7 C914.02 10.21, 913.76 14.14, 914.1 20.09 M914.1 6.7 C914.46 10.45, 914.36 13.82, 914.1 20.09 M914.1 20.09 C913.32 23.64, 913.23 25.04, 907.41 26.78 M914.1 20.09 C915.44 26.59, 909.82 28.94, 907.41 26.78 M907.41 26.78 C717.83 24.1, 529.68 25.01, 6.7 26.78 M907.41 26.78 C640.36 24.62, 373.2 23.95, 6.7 26.78 M6.7 26.78 C3.54 27.04, 0.48 23.43, 0 20.09 M6.7 26.78 C0.61 28.47, 1.54 23.49, 0 20.09 M0 20.09 C-0.55 14.02, 0.38 10.74, 0 6.7 M0 20.09 C0.34 16.96, -0.4 13.95, 0 6.7 M0 6.7 C-0.87 2.65, 0.78 -1.91, 6.7 0 M0 6.7 C1.32 1.52, 2.56 1.82, 6.7 0" stroke="#000000" stroke-width="1" fill="none"></path></g><g stroke-linecap="round" transform="translate(94.99806788446676 30.393009167537002) rotate(0 9.999999999999886 9.285714285714448)"><path d="M12.39 0.2 C14.45 0.32, 17.39 1.38, 18.52 3.09 C19.64 4.81, 19.49 8.32, 19.13 10.48 C18.78 12.64, 17.92 14.68, 16.39 16.03 C14.86 17.39, 12.11 18.45, 9.95 18.61 C7.79 18.78, 4.92 18.28, 3.43 17.01 C1.94 15.75, 1.41 13.1, 1.01 11 C0.62 8.9, 0.35 6.16, 1.07 4.42 C1.79 2.68, 3.42 1.24, 5.33 0.56 C7.24 -0.12, 11.04 0.44, 12.54 0.32 C14.05 0.21, 14.27 -0.15, 14.36 -0.12 M10.88 0.64 C12.68 0.26, 14.66 0.76, 16.27 1.85 C17.89 2.93, 19.99 5.23, 20.59 7.15 C21.18 9.06, 21.2 11.51, 19.82 13.34 C18.44 15.17, 14.77 17.51, 12.32 18.12 C9.88 18.73, 7.19 17.83, 5.15 17.01 C3.11 16.2, 1.13 14.87, 0.08 13.24 C-0.98 11.6, -1.85 9.14, -1.18 7.2 C-0.5 5.26, 2.06 3.04, 4.14 1.6 C6.22 0.17, 10.19 -1.03, 11.31 -1.39 C12.43 -1.75, 11.11 -0.89, 10.86 -0.54" stroke="none" stroke-width="0" fill="#82c91e"></path><path d="M7.89 -0.1 C10.03 -0.71, 12.68 0.83, 14.64 1.66 C16.61 2.49, 18.99 3.17, 19.68 4.88 C20.37 6.58, 19.37 10.03, 18.77 11.88 C18.17 13.74, 17.65 14.92, 16.1 16 C14.56 17.09, 11.59 18.45, 9.51 18.41 C7.43 18.36, 5.29 17.15, 3.62 15.74 C1.95 14.34, -0.11 11.88, -0.51 9.98 C-0.9 8.07, -0.19 6.13, 1.26 4.32 C2.71 2.5, 6.54 -0.16, 8.2 -0.9 C9.85 -1.64, 11.05 -0.55, 11.21 -0.1 M7.9 -0.62 C9.57 -1, 11.57 0.72, 13.38 1.67 C15.19 2.63, 17.5 3.5, 18.78 5.12 C20.06 6.75, 21.26 9.75, 21.06 11.42 C20.86 13.1, 19.42 13.94, 17.58 15.17 C15.75 16.4, 12.5 18.7, 10.04 18.82 C7.58 18.94, 4.61 17.2, 2.84 15.88 C1.06 14.55, -0.63 12.88, -0.62 10.88 C-0.62 8.89, 1.54 5.75, 2.87 3.93 C4.2 2.11, 6.43 0.39, 7.36 -0.04 C8.29 -0.47, 8.6 0.94, 8.46 1.37" stroke="#000000" stroke-width="1" fill="none"></path></g><g stroke-linecap="round"><g transform="translate(12.438922856691534 367.8200094528852) rotate(0 612.4609393229196 -0.9054745402188473)"><path d="M1.79 0.94 C205.53 0.28, 1019.28 -2.37, 1223.13 -2.75" stroke="#000000" stroke-width="1.5" fill="none" stroke-dasharray="1.5 7"></path></g></g><mask></mask><g transform="translate(162.42647185508258 24.833776081564338) rotate(0 128.72222900390625 12)"><text x="0" y="0" font-family="Virgil, Segoe UI Emoji" font-size="20px" fill="#000000" text-anchor="start" style="white-space: pre;" direction="ltr" dominant-baseline="text-before-edge">https://app.auto-devops.io</text></g><g transform="translate(408.8266760904894 90.12595854794972) rotate(0 20.08888816833496 12)"><text x="0" y="0" font-family="Virgil, Segoe UI Emoji" font-size="20px" fill="#000000" text-anchor="start" style="white-space: pre;" direction="ltr" dominant-baseline="text-before-edge">AWS</text></g><g stroke-linecap="round"><g transform="translate(412.1133932121229 112.20478280104498) rotate(0 14.741047922060943 4.1931692054909036)"><path d="M0 0 C2.62 1.4, 10.8 8.14, 15.71 8.38 C20.63 8.62, 27.19 2.62, 29.48 1.46 M0 0 C2.62 1.4, 10.8 8.14, 15.71 8.38 C20.63 8.62, 27.19 2.62, 29.48 1.46" stroke="#000000" stroke-width="1" fill="none"></path></g><g transform="translate(412.1133932121229 112.20478280104498) rotate(0 14.741047922060943 4.1931692054909036)"><path d="M24.93 7.68 C26.68 5.29, 28.44 2.89, 29.48 1.46 M24.93 7.68 C26.01 6.21, 27.09 4.73, 29.48 1.46" stroke="#000000" stroke-width="1" fill="none"></path></g><g transform="translate(412.1133932121229 112.20478280104498) rotate(0 14.741047922060943 4.1931692054909036)"><path d="M22 3.3 C24.88 2.6, 27.76 1.89, 29.48 1.46 M22 3.3 C23.78 2.87, 25.55 2.43, 29.48 1.46" stroke="#000000" stroke-width="1" fill="none"></path></g></g><mask></mask><g transform="translate(477.80361952969224 93.03398012997604) rotate(0 161.3222198486328 12)"><text x="0" y="0" font-family="Virgil, Segoe UI Emoji" font-size="20px" fill="#000000" text-anchor="start" style="white-space: pre;" direction="ltr" dominant-baseline="text-before-edge">Connect to Amazon Web Services</text></g><g stroke-linecap="round" transform="translate(416.6961949880397 162.95032719481424) rotate(0 198.708603215739 16.449387683422174)"><path d="M8.22 0 M8.22 0 C154.15 0, 300.07 0, 389.19 0 M8.22 0 C125.39 0, 242.56 0, 389.19 0 M389.19 0 C394.68 0, 397.42 2.74, 397.42 8.22 M389.19 0 C394.68 0, 397.42 2.74, 397.42 8.22 M397.42 8.22 C397.42 14.47, 397.42 20.71, 397.42 24.67 M397.42 8.22 C397.42 14.79, 397.42 21.36, 397.42 24.67 M397.42 24.67 C397.42 30.16, 394.68 32.9, 389.19 32.9 M397.42 24.67 C397.42 30.16, 394.68 32.9, 389.19 32.9 M389.19 32.9 C278.45 32.9, 167.71 32.9, 8.22 32.9 M389.19 32.9 C293.09 32.9, 197 32.9, 8.22 32.9 M8.22 32.9 C2.74 32.9, 0 30.16, 0 24.67 M8.22 32.9 C2.74 32.9, 0 30.16, 0 24.67 M0 24.67 C0 19.88, 0 15.08, 0 8.22 M0 24.67 C0 20.19, 0 15.71, 0 8.22 M0 8.22 C0 2.74, 2.74 0, 8.22 0 M0 8.22 C0 2.74, 2.74 0, 8.22 0" stroke="#000000" stroke-width="1" fill="none"></path></g><g stroke-linecap="round" transform="translate(415.3802439733654 213.75957802097082) rotate(0 198.708603215739 16.449387683422174)"><path d="M8.22 0 M8.22 0 C89.45 0, 170.67 0, 389.19 0 M8.22 0 C93.91 0, 179.59 0, 389.19 0 M389.19 0 C394.68 0, 397.42 2.74, 397.42 8.22 M389.19 0 C394.68 0, 397.42 2.74, 397.42 8.22 M397.42 8.22 C397.42 14.77, 397.42 21.31, 397.42 24.67 M397.42 8.22 C397.42 12.23, 397.42 16.23, 397.42 24.67 M397.42 24.67 C397.42 30.16, 394.68 32.9, 389.19 32.9 M397.42 24.67 C397.42 30.16, 394.68 32.9, 389.19 32.9 M389.19 32.9 C266.94 32.9, 144.69 32.9, 8.22 32.9 M389.19 32.9 C302.47 32.9, 215.75 32.9, 8.22 32.9 M8.22 32.9 C2.74 32.9, 0 30.16, 0 24.67 M8.22 32.9 C2.74 32.9, 0 30.16, 0 24.67 M0 24.67 C0 18.87, 0 13.07, 0 8.22 M0 24.67 C0 18.26, 0 11.85, 0 8.22 M0 8.22 C0 2.74, 2.74 0, 8.22 0 M0 8.22 C0 2.74, 2.74 0, 8.22 0" stroke="#000000" stroke-width="1" fill="none"></path></g><g stroke-linecap="round" transform="translate(419.3280970173869 259.47372002782413) rotate(0 73.23653906922232 10.728865872218194)"><path d="M5.36 0 M5.36 0 C43.73 0, 82.09 0, 141.11 0 M5.36 0 C46.25 0, 87.14 0, 141.11 0 M141.11 0 C144.68 0, 146.47 1.79, 146.47 5.36 M141.11 0 C144.68 0, 146.47 1.79, 146.47 5.36 M146.47 5.36 C146.47 8, 146.47 10.63, 146.47 16.09 M146.47 5.36 C146.47 8.27, 146.47 11.18, 146.47 16.09 M146.47 16.09 C146.47 19.67, 144.68 21.46, 141.11 21.46 M146.47 16.09 C146.47 19.67, 144.68 21.46, 141.11 21.46 M141.11 21.46 C108.08 21.46, 75.04 21.46, 5.36 21.46 M141.11 21.46 C99.82 21.46, 58.54 21.46, 5.36 21.46 M5.36 21.46 C1.79 21.46, 0 19.67, 0 16.09 M5.36 21.46 C1.79 21.46, 0 19.67, 0 16.09 M0 16.09 C0 12.35, 0 8.6, 0 5.36 M0 16.09 C0 13.59, 0 11.09, 0 5.36 M0 5.36 C0 1.79, 1.79 0, 5.36 0 M0 5.36 C0 1.79, 1.79 0, 5.36 0" stroke="#000000" stroke-width="1" fill="none"></path></g><g stroke-linecap="round" transform="translate(538.2591327885332 322.38104307511094) rotate(0 73.23653906922243 10.728865872218194)"><path d="M5.36 0 M5.36 0 C38.31 0, 71.25 0, 141.11 0 M5.36 0 C54.43 0, 103.49 0, 141.11 0 M141.11 0 C144.68 0, 146.47 1.79, 146.47 5.36 M141.11 0 C144.68 0, 146.47 1.79, 146.47 5.36 M146.47 5.36 C146.47 8.7, 146.47 12.03, 146.47 16.09 M146.47 5.36 C146.47 8.57, 146.47 11.78, 146.47 16.09 M146.47 16.09 C146.47 19.67, 144.68 21.46, 141.11 21.46 M146.47 16.09 C146.47 19.67, 144.68 21.46, 141.11 21.46 M141.11 21.46 C96.94 21.46, 52.78 21.46, 5.36 21.46 M141.11 21.46 C101.46 21.46, 61.8 21.46, 5.36 21.46 M5.36 21.46 C1.79 21.46, 0 19.67, 0 16.09 M5.36 21.46 C1.79 21.46, 0 19.67, 0 16.09 M0 16.09 C0 13.59, 0 11.09, 0 5.36 M0 16.09 C0 13.91, 0 11.72, 0 5.36 M0 5.36 C0 1.79, 1.79 0, 5.36 0 M0 5.36 C0 1.79, 1.79 0, 5.36 0" stroke="#000000" stroke-width="1" fill="none"></path></g><g transform="translate(590.019830562393 323.5685607925566) rotate(0 19.633333206176758 9.599999999999909)"><text x="0" y="0" font-family="Virgil, Segoe UI Emoji" font-size="16px" fill="#000000" text-anchor="start" style="white-space: pre;" direction="ltr" dominant-baseline="text-before-edge">SAVE</text></g><g transform="translate(425.86897404930505 221.29172644081882) rotate(0 188.24444580078125 9.599999999999909)"><text x="0" y="0" font-family="Virgil, Segoe UI Emoji" font-size="16px" fill="#000000" text-anchor="start" style="white-space: pre;" direction="ltr" dominant-baseline="text-before-edge">Puph7D/ZMBahXyBZ7rRVyb7Lbptg54TttXzrJz/w</text></g><g transform="translate(425.86897404930505 171.16362660341565) rotate(0 105.67778015136719 9.599999999999909)"><text x="0" y="0" font-family="Virgil, Segoe UI Emoji" font-size="16px" fill="#000000" text-anchor="start" style="white-space: pre;" direction="ltr" dominant-baseline="text-before-edge">AKIASP2TPHJS45BZU3LO</text></g><g transform="translate(241.92979167547742 171.16362660341565) rotate(0 65.35555267333984 9.599999999999909)"><text x="0" y="0" font-family="Virgil, Segoe UI Emoji" font-size="16px" fill="#000000" text-anchor="start" style="white-space: pre;" direction="ltr" dominant-baseline="text-before-edge">AWS ACCESS ID</text></g><g transform="translate(230.11718363312139 220.44796872350707) rotate(0 71.15555572509766 9.599999999999909)"><text x="0" y="0" font-family="Virgil, Segoe UI Emoji" font-size="16px" fill="#000000" text-anchor="start" style="white-space: pre;" direction="ltr" dominant-baseline="text-before-edge">AWS SECRET KEY</text></g><g transform="translate(328.56480429791054 261.16263899571504) rotate(0 32.44444274902344 9.599999999999909)"><text x="0" y="0" font-family="Virgil, Segoe UI Emoji" font-size="16px" fill="#000000" text-anchor="start" style="white-space: pre;" direction="ltr" dominant-baseline="text-before-edge">REGION</text></g><g stroke-linecap="round" transform="translate(1105.0939364847713 79.45404868085234) rotate(0 14.76576005294487 14.343881194289452)"><path d="M3.19 5.43 C3.19 5.43, 3.19 5.43, 3.19 5.43 M3.19 5.43 C3.19 5.43, 3.19 5.43, 3.19 5.43 M0.31 14.84 C4.55 9.96, 8.8 5.07, 12.77 0.5 M0.31 14.84 C5.16 9.26, 10.01 3.69, 12.77 0.5 M1.36 19.73 C6.57 13.73, 11.79 7.73, 17.76 0.86 M1.36 19.73 C7.24 12.97, 13.11 6.2, 17.76 0.86 M3.72 23.11 C8.07 18.11, 12.42 13.1, 21.43 2.73 M3.72 23.11 C8.89 17.16, 14.06 11.22, 21.43 2.73 M6.08 26.49 C10.18 21.78, 14.27 17.07, 25.11 4.6 M6.08 26.49 C10.12 21.84, 14.16 17.2, 25.11 4.6 M9.76 28.36 C15.69 21.54, 21.62 14.71, 28.13 7.23 M9.76 28.36 C14.96 22.38, 20.16 16.39, 28.13 7.23 M14.74 28.72 C19.85 22.85, 24.95 16.97, 29.18 12.11 M14.74 28.72 C20.15 22.5, 25.56 16.28, 29.18 12.11 M20.39 28.32 C23.99 24.18, 27.6 20.03, 30.23 17 M20.39 28.32 C23.62 24.6, 26.86 20.88, 30.23 17" stroke="#15aabf" stroke-width="0.5" fill="none"></path><path d="M29.53 14.34 C29.53 15.17, 29.46 16.02, 29.31 16.83 C29.16 17.65, 28.93 18.47, 28.64 19.25 C28.35 20.03, 27.98 20.8, 27.55 21.52 C27.13 22.23, 26.63 22.93, 26.08 23.56 C25.53 24.2, 24.91 24.8, 24.26 25.33 C23.6 25.87, 22.89 26.35, 22.15 26.77 C21.41 27.18, 20.62 27.54, 19.82 27.82 C19.01 28.11, 18.17 28.33, 17.33 28.47 C16.49 28.61, 15.62 28.69, 14.77 28.69 C13.91 28.69, 13.04 28.61, 12.2 28.47 C11.36 28.33, 10.52 28.11, 9.72 27.82 C8.91 27.54, 8.12 27.18, 7.38 26.77 C6.64 26.35, 5.93 25.87, 5.27 25.33 C4.62 24.8, 4 24.2, 3.45 23.56 C2.91 22.93, 2.41 22.23, 1.98 21.52 C1.55 20.8, 1.18 20.03, 0.89 19.25 C0.6 18.47, 0.37 17.65, 0.22 16.83 C0.08 16.02, 0 15.17, 0 14.34 C0 13.51, 0.08 12.67, 0.22 11.85 C0.37 11.04, 0.6 10.22, 0.89 9.44 C1.18 8.66, 1.55 7.89, 1.98 7.17 C2.41 6.45, 2.91 5.76, 3.45 5.12 C4 4.49, 4.62 3.89, 5.27 3.36 C5.93 2.82, 6.64 2.34, 7.38 1.92 C8.12 1.51, 8.91 1.15, 9.72 0.87 C10.52 0.58, 11.36 0.36, 12.2 0.22 C13.04 0.07, 13.91 0, 14.77 0 C15.62 0, 16.49 0.07, 17.33 0.22 C18.17 0.36, 19.01 0.58, 19.82 0.87 C20.62 1.15, 21.41 1.51, 22.15 1.92 C22.89 2.34, 23.6 2.82, 24.26 3.36 C24.91 3.89, 25.53 4.49, 26.08 5.12 C26.63 5.76, 27.13 6.45, 27.55 7.17 C27.98 7.89, 28.35 8.66, 28.64 9.44 C28.93 10.22, 29.16 11.04, 29.31 11.85 C29.46 12.67, 29.49 13.93, 29.53 14.34 C29.57 14.76, 29.57 13.93, 29.53 14.34" stroke="#000000" stroke-width="1" fill="none"></path></g><g stroke-linecap="round"><g transform="translate(550.3409892759669 262.7671277409977) rotate(0 0 8.015698314455676)"><path d="M0 0 C0 2.67, 0 13.36, 0 16.03 M0 0 C0 2.67, 0 13.36, 0 16.03" stroke="#000000" stroke-width="1" fill="none"></path></g><g transform="translate(550.3409892759669 262.7671277409977) rotate(0 0 8.015698314455676)"><path d="M-2.74 8.5 C-1.75 11.23, -0.75 13.97, 0 16.03 M-2.74 8.5 C-2.15 10.12, -1.56 11.75, 0 16.03" stroke="#000000" stroke-width="1" fill="none"></path></g><g transform="translate(550.3409892759669 262.7671277409977) rotate(0 0 8.015698314455676)"><path d="M2.74 8.5 C1.75 11.23, 0.75 13.97, 0 16.03 M2.74 8.5 C2.15 10.12, 1.56 11.75, 0 16.03" stroke="#000000" stroke-width="1" fill="none"></path></g></g><mask></mask><g transform="translate(49.203189268580445 84.77031886901659) rotate(0 73.65555572509766 12)"><text x="0" y="0" font-family="Virgil, Segoe UI Emoji" font-size="20px" fill="#000000" text-anchor="start" style="white-space: pre;" direction="ltr" dominant-baseline="text-before-edge">AUTO DEVOPS</text></g><g transform="translate(434.3955209089372 259.6526773088285) rotate(0 39.74444580078125 9.599999999999909)"><text x="0" y="0" font-family="Virgil, Segoe UI Emoji" font-size="16px" fill="#000000" text-anchor="start" style="white-space: pre;" direction="ltr" dominant-baseline="text-before-edge">us-east-2</text></g></svg>