<svg version="1.1" xmlns="http://www.w3.org/2000/svg" viewBox="0 0 1081.666445726262 445.08722057581963" width="2163.332891452524" height="890.1744411516393">
  <!-- svg-source:excalidraw -->
  
  <defs>
    <style class="style-fonts">
      @font-face {
        font-family: "Virgil";
        src: url("https://excalidraw.com/Virgil.woff2");
      }
      @font-face {
        font-family: "Cascadia";
        src: url("https://excalidraw.com/Cascadia.woff2");
      }
    </style>
  </defs>
  <rect x="0" y="0" width="1081.666445726262" height="445.08722057581963" fill="#ebfbee"></rect><g transform="translate(42.834326862039234 201.83948297990946) rotate(0 76.36666870117188 11.5)"><text x="0" y="0" font-family="Helvetica, Segoe UI Emoji" font-size="20px" fill="#000000" text-anchor="start" style="white-space: pre;" direction="ltr" dominant-baseline="text-before-edge">24 word recovery</text></g><g transform="translate(386.1001304452154 172.33375769647967) rotate(0 44.11111068725586 9.199999999999989)"><text x="0" y="0" font-family="Helvetica, Segoe UI Emoji" font-size="16px" fill="#000000" text-anchor="start" style="white-space: pre;" direction="ltr" dominant-baseline="text-before-edge">1. public key</text></g><g transform="translate(383.9890366922789 230.2774297021724) rotate(0 44.655555725097656 9.199999999999989)"><text x="0" y="0" font-family="Helvetica, Segoe UI Emoji" font-size="16px" fill="#000000" text-anchor="start" style="white-space: pre;" direction="ltr" dominant-baseline="text-before-edge">3. privatekey</text></g><g stroke-linecap="round" transform="translate(373.2075076377107 157.66803222508736) rotate(0 70.88812512922436 54.374414161620905)"><path d="M27.19 0 M27.19 0 C61.22 1.22, 90.68 -1.33, 114.59 0 M114.59 0 C131.06 0.68, 140.56 8.17, 141.78 27.19 M141.78 27.19 C140.33 48.64, 141.74 67.19, 141.78 81.56 M141.78 81.56 C142.73 100.96, 132.47 110.65, 114.59 108.75 M114.59 108.75 C89.42 107.1, 64.82 108.97, 27.19 108.75 M27.19 108.75 C10.35 107.97, -0.61 99.62, 0 81.56 M0 81.56 C-0.56 64.93, 1.2 45.36, 0 27.19 M0 27.19 C-0.95 8.04, 7.07 0.12, 27.19 0" stroke="#495057" stroke-width="1.5" fill="none" stroke-dasharray="1.5 7"></path></g><g stroke-linecap="round" transform="translate(10 10) rotate(0 530.833222863131 212.54361028790981)"><path d="M32 0 M32 0 C231.88 -4.58, 431.67 -4.07, 1029.67 0 M32 0 C351.82 -3.88, 670.69 -3.61, 1029.67 0 M1029.67 0 C1049.05 -1.18, 1060.37 12.12, 1061.67 32 M1029.67 0 C1051.24 1.71, 1061.73 8.56, 1061.67 32 M1061.67 32 C1060.65 165.04, 1061.79 301.37, 1061.67 393.09 M1061.67 32 C1061.89 120.11, 1060.93 207.09, 1061.67 393.09 M1061.67 393.09 C1062.53 416.36, 1052.44 426.14, 1029.67 425.09 M1061.67 393.09 C1060.48 415.48, 1051.48 423.69, 1029.67 425.09 M1029.67 425.09 C779.42 428.86, 530.3 428.57, 32 425.09 M1029.67 425.09 C791.97 423.57, 555 423.63, 32 425.09 M32 425.09 C8.78 424.46, 1.96 415.81, 0 393.09 M32 425.09 C10.77 424.45, 1.32 413.92, 0 393.09 M0 393.09 C1.6 310.81, 0.96 228.66, 0 32 M0 393.09 C-0.4 273.46, -0.09 154.81, 0 32 M0 32 C1.89 11.81, 9.01 0.22, 32 0 M0 32 C-0.31 10.05, 8.98 -1.7, 32 0" stroke="#000000" stroke-width="2" fill="none"></path></g><g transform="translate(381.1885159987021 200.1586491472483) rotate(0 59.42222213745117 9.199999999999989)"><text x="0" y="0" font-family="Helvetica, Segoe UI Emoji" font-size="16px" fill="#000000" text-anchor="start" style="white-space: pre;" direction="ltr" dominant-baseline="text-before-edge">2. symmetric key</text></g><g transform="translate(259.9385159987021 201.58722057581963) rotate(0 33.75555419921875 9.199999999999989)"><text x="0" y="0" font-family="Helvetica, Segoe UI Emoji" font-size="16px" fill="#000000" text-anchor="start" style="white-space: pre;" direction="ltr" dominant-baseline="text-before-edge">Argon2ID</text></g><g stroke-linecap="round"><g transform="translate(208.81540186029292 212.60751874474454) rotate(0 20.43660865331799 -0.1731488988824026)"><path d="M0.08 -0.97 C7.18 -0.85, 35.46 0.19, 42.21 0.24 M-1.34 1.13 C5.71 0.95, 34.3 -1.38, 41.7 -1.48" stroke="#000000" stroke-width="1" fill="none"></path></g><g transform="translate(208.81540186029292 212.60751874474454) rotate(0 20.43660865331799 -0.1731488988824026)"><path d="M43 -0.46 L28.9 5.38 L29.22 -6.41 L40.77 -1.45" stroke="none" stroke-width="0" fill="#000000" fill-rule="evenodd"></path><path d="M40.49 -0.43 C39.08 -0.55, 34.38 1.21, 28.55 6.98 M41.84 -0.87 C38.42 0.6, 35.48 1.19, 28.64 4.96 M29.18 6.16 C28.22 0.96, 29.11 -1.35, 27.11 -7.85 M28.15 5.06 C28.57 2.61, 28.62 -0.68, 27.99 -7.52 M27.23 -5.97 C32.95 -3.71, 37.21 -3.14, 42.13 -0.3 M27.11 -7.56 C32.71 -4.48, 38.12 -2.7, 41.68 -0.77 M41.7 -1.48 C41.7 -1.48, 41.7 -1.48, 41.7 -1.48 M41.7 -1.48 C41.7 -1.48, 41.7 -1.48, 41.7 -1.48" stroke="#000000" stroke-width="1" fill="none"></path></g></g><mask></mask><g transform="translate(168.59924685494684 335.58722057581963) rotate(0 46.011112213134766 9.199999999999989)"><text x="0" y="0" font-family="Helvetica, Segoe UI Emoji" font-size="16px" fill="#000000" text-anchor="start" style="white-space: pre;" direction="ltr" dominant-baseline="text-before-edge">sudo pass -&gt;</text></g><g transform="translate(271.2718480604699 335.1060688615838) rotate(0 43.31111145019531 9.199999999999989)"><text x="0" y="0" font-family="Helvetica, Segoe UI Emoji" font-size="16px" fill="#000000" text-anchor="start" style="white-space: pre;" direction="ltr" dominant-baseline="text-before-edge">Argon2ID -&gt;</text></g><g transform="translate(370.14087485704226 335.167586003942) rotate(0 77.97777557373047 9.199999999999989)"><text x="0" y="0" font-family="Helvetica, Segoe UI Emoji" font-size="16px" fill="#000000" text-anchor="start" style="white-space: pre;" direction="ltr" dominant-baseline="text-before-edge">xChaCha20-Poly1305</text></g><g stroke-linecap="round" transform="translate(684.2061494406578 89.97957299096629) rotate(0 170.94466998651683 115.07440287114122)"><path d="M32 0 M32 0 C135.75 1.85, 235.97 -0.11, 309.89 0 M309.89 0 C329.57 0.68, 340.67 9.78, 341.89 32 M341.89 32 C339.4 94.81, 340.81 154.73, 341.89 198.15 M341.89 198.15 C342.85 220.76, 330.98 232.05, 309.89 230.15 M309.89 230.15 C232.91 227.94, 156.37 229.38, 32 230.15 M32 230.15 C11.96 229.37, -0.61 219.41, 0 198.15 M0 198.15 C0.52 145.71, 2.29 90.33, 0 32 M0 32 C-0.95 9.65, 8.67 0.12, 32 0" stroke="#495057" stroke-width="1.5" fill="none" stroke-dasharray="1.5 7"></path></g><g transform="translate(765.9969572088269 52.01025837913869) rotate(0 90.0111083984375 12.5)"><text x="0" y="0" font-family="Virgil, Segoe UI Emoji" font-size="20px" fill="#000000" text-anchor="start" style="white-space: pre;" direction="ltr" dominant-baseline="text-before-edge">Wrapped App Keys:</text></g><g transform="translate(720.2927019976544 103.59502114409725) rotate(0 133.08888244628906 9.199999999999989)"><text x="0" y="0" font-family="Helvetica, Segoe UI Emoji" font-size="16px" fill="#000000" text-anchor="start" style="white-space: pre;" direction="ltr" dominant-baseline="text-before-edge">App seed = 32 bytes high entropy key</text></g><g transform="translate(726.512636299836 355.4754037031581) rotate(0 136.61111450195312 9.199999999999989)"><text x="0" y="0" font-family="Helvetica, Segoe UI Emoji" font-size="16px" fill="#000000" text-anchor="start" style="white-space: pre;" direction="ltr" dominant-baseline="text-before-edge">pss:version:appToken:share0:wrapKey</text></g><g transform="translate(584.8319719043495 191.3937654331121) rotate(0 42.64444351196289 18.399999999999977)"><text x="0" y="0" font-family="Helvetica, Segoe UI Emoji" font-size="16px" fill="#000000" text-anchor="start" style="white-space: pre;" direction="ltr" dominant-baseline="text-before-edge">xChaCha20</text><text x="0" y="18.4" font-family="Helvetica, Segoe UI Emoji" font-size="16px" fill="#000000" text-anchor="start" style="white-space: pre;" direction="ltr" dominant-baseline="text-before-edge">Poly1305 -&gt;</text></g><g stroke-linecap="round"><g transform="translate(512.2925128084441 209.92489300923012) rotate(0 28.968516349804304 -0.7823096864203762)"><path d="M0 0 C9.66 -0.26, 48.28 -1.3, 57.94 -1.56 M0 0 C9.66 -0.26, 48.28 -1.3, 57.94 -1.56" stroke="#000000" stroke-width="2" fill="none"></path></g><g transform="translate(512.2925128084441 209.92489300923012) rotate(0 28.968516349804304 -0.7823096864203762)"><path d="M57.94 -1.56 L44.52 5.14 L44.18 -7.53 L57.94 -1.56" stroke="none" stroke-width="0" fill="#000000" fill-rule="evenodd"></path><path d="M57.94 -1.56 C54.33 0.24, 50.73 2.04, 44.52 5.14 M57.94 -1.56 C53.82 0.49, 49.71 2.55, 44.52 5.14 M44.52 5.14 C44.44 2.4, 44.37 -0.34, 44.18 -7.53 M44.52 5.14 C44.42 1.46, 44.32 -2.22, 44.18 -7.53 M44.18 -7.53 C48.56 -5.63, 52.94 -3.73, 57.94 -1.56 M44.18 -7.53 C48.88 -5.5, 53.57 -3.46, 57.94 -1.56 M57.94 -1.56 C57.94 -1.56, 57.94 -1.56, 57.94 -1.56 M57.94 -1.56 C57.94 -1.56, 57.94 -1.56, 57.94 -1.56" stroke="#000000" stroke-width="2" fill="none"></path></g></g><mask></mask><g transform="translate(718.3429002660989 125.00003314106084) rotate(0 134.85556030273438 9.199999999999989)"><text x="0" y="0" font-family="Helvetica, Segoe UI Emoji" font-size="16px" fill="#000000" text-anchor="start" style="white-space: pre;" direction="ltr" dominant-baseline="text-before-edge">AppToken = 32 bytes high entropy key</text></g><g transform="translate(720.0129405301402 177.49112942542752) rotate(0 113.30000305175781 9.199999999999989)"><text x="0" y="0" font-family="Helvetica, Segoe UI Emoji" font-size="16px" fill="#000000" text-anchor="start" style="white-space: pre;" direction="ltr" dominant-baseline="text-before-edge">- appID = X25519.pubkey(seed)</text></g><g transform="translate(720.4351664822887 205.2911294254277) rotate(0 130.72222900390625 9.199999999999989)"><text x="0" y="0" font-family="Helvetica, Segoe UI Emoji" font-size="16px" fill="#000000" text-anchor="start" style="white-space: pre;" direction="ltr" dominant-baseline="text-before-edge">- appPrivkey = X25519.privkey(seed)</text></g><g transform="translate(719.1462718289683 234.2911294254277) rotate(0 135.2111053466797 9.199999999999989)"><text x="0" y="0" font-family="Helvetica, Segoe UI Emoji" font-size="16px" fill="#000000" text-anchor="start" style="white-space: pre;" direction="ltr" dominant-baseline="text-before-edge">- share0 = secret_sharing(appPrivkey)</text></g><g transform="translate(719.9873552221545 262.309977711192) rotate(0 135.2111053466797 9.199999999999989)"><text x="0" y="0" font-family="Helvetica, Segoe UI Emoji" font-size="16px" fill="#000000" text-anchor="start" style="white-space: pre;" direction="ltr" dominant-baseline="text-before-edge">- share1 = secret_sharing(appPrivkey)</text></g><g stroke-linecap="round" transform="translate(704.2550054261262 163.00107399555884) rotate(0 149.5 68.14136214323139)"><path d="M32 0 M32 0 C110.78 -1.34, 191.47 -0.6, 267 0 M32 0 C123.75 1.4, 213.73 0.45, 267 0 M267 0 C286.63 -1.76, 298.44 10.2, 299 32 M267 0 C288.16 -1.52, 298.87 9.02, 299 32 M299 32 C299.25 56.28, 300.03 82.17, 299 104.28 M299 32 C300.13 55.34, 300.09 80.21, 299 104.28 M299 104.28 C297.14 125.48, 288.21 134.91, 267 136.28 M299 104.28 C298.81 126.28, 287.99 136.02, 267 136.28 M267 136.28 C187.6 137.39, 106.48 136.9, 32 136.28 M267 136.28 C211.28 138.09, 155.69 137.57, 32 136.28 M32 136.28 C9.81 135.03, 0.18 123.94, 0 104.28 M32 136.28 C10.2 137.89, -1.67 127.91, 0 104.28 M0 104.28 C-1.41 88.36, -1.85 73.39, 0 32 M0 104.28 C0.44 87.26, -0.36 72.16, 0 32 M0 32 C1.12 11.97, 10.15 0.45, 32 0 M0 32 C-0.43 12.16, 8.8 0.79, 32 0" stroke="#000000" stroke-width="1" fill="none"></path></g><g stroke-linecap="round"><g transform="translate(854.0654649313744 304.5766715539662) rotate(0 0.08777497350729391 21.839227682901537)"><path d="M0 0 C0.03 7.28, 0.15 36.4, 0.18 43.68 M0 0 C0.03 7.28, 0.15 36.4, 0.18 43.68" stroke="#000000" stroke-width="2" fill="none"></path></g><g transform="translate(854.0654649313744 304.5766715539662) rotate(0 0.08777497350729391 21.839227682901537)"><path d="M0.18 43.68 L-6.22 30.11 L6.46 30.06 L0.18 43.68" stroke="none" stroke-width="0" fill="#000000" fill-rule="evenodd"></path><path d="M0.18 43.68 C-1.69 39.73, -3.55 35.77, -6.22 30.11 M0.18 43.68 C-1.25 40.66, -2.67 37.65, -6.22 30.11 M-6.22 30.11 C-3.6 30.1, -0.99 30.09, 6.46 30.06 M-6.22 30.11 C-3.46 30.1, -0.69 30.09, 6.46 30.06 M6.46 30.06 C4.98 33.27, 3.49 36.48, 0.18 43.68 M6.46 30.06 C4.51 34.29, 2.55 38.53, 0.18 43.68 M0.18 43.68 C0.18 43.68, 0.18 43.68, 0.18 43.68 M0.18 43.68 C0.18 43.68, 0.18 43.68, 0.18 43.68" stroke="#000000" stroke-width="2" fill="none"></path></g></g><mask></mask><g stroke-linecap="round"><g transform="translate(335.6885159987021 184.33722057581963) rotate(0 0 26.957189259698737)"><path d="M0 0 C0 8.99, 0 44.93, 0 53.91 M0 0 C0 8.99, 0 44.93, 0 53.91" stroke="#000000" stroke-width="1" fill="none"></path></g></g><mask></mask><g stroke-linecap="round"><g transform="translate(335.4578440933751 183.33722057581963) rotate(0 15.115335952663486 0)"><path d="M0 0 C5.04 0, 25.19 0, 30.23 0 M0 0 C5.04 0, 25.19 0, 30.23 0" stroke="#000000" stroke-width="1" fill="none"></path></g><g transform="translate(335.4578440933751 183.33722057581963) rotate(0 15.115335952663486 0)"><path d="M30.23 0 L16.64 6.34 L16.64 -6.34 L30.23 0" stroke="none" stroke-width="0" fill="#000000" fill-rule="evenodd"></path><path d="M30.23 0 C27.4 1.32, 24.57 2.64, 16.64 6.34 M30.23 0 C27 1.5, 23.78 3.01, 16.64 6.34 M16.64 6.34 C16.64 2.36, 16.64 -1.63, 16.64 -6.34 M16.64 6.34 C16.64 1.66, 16.64 -3.02, 16.64 -6.34 M16.64 -6.34 C20.82 -4.39, 25.01 -2.43, 30.23 0 M16.64 -6.34 C21.05 -4.28, 25.47 -2.22, 30.23 0 M30.23 0 C30.23 0, 30.23 0, 30.23 0 M30.23 0 C30.23 0, 30.23 0, 30.23 0" stroke="#000000" stroke-width="1" fill="none"></path></g></g><mask></mask><g stroke-linecap="round"><g transform="translate(336.1885159987021 211.26182743276286) rotate(0 15.5 0)"><path d="M0 0 C5.17 0, 25.83 0, 31 0 M0 0 C5.17 0, 25.83 0, 31 0" stroke="#000000" stroke-width="1" fill="none"></path></g><g transform="translate(336.1885159987021 211.26182743276286) rotate(0 15.5 0)"><path d="M31 0 L17.41 6.34 L17.41 -6.34 L31 0" stroke="none" stroke-width="0" fill="#000000" fill-rule="evenodd"></path><path d="M31 0 C28.17 1.32, 25.34 2.64, 17.41 6.34 M31 0 C27.77 1.5, 24.55 3.01, 17.41 6.34 M17.41 6.34 C17.41 2.36, 17.41 -1.63, 17.41 -6.34 M17.41 6.34 C17.41 1.66, 17.41 -3.02, 17.41 -6.34 M17.41 -6.34 C21.59 -4.39, 25.78 -2.43, 31 0 M17.41 -6.34 C21.82 -4.28, 26.23 -2.22, 31 0 M31 0 C31 0, 31 0, 31 0 M31 0 C31 0, 31 0, 31 0" stroke="#000000" stroke-width="1" fill="none"></path></g></g><mask></mask><g stroke-linecap="round"><g transform="translate(335.74559698577036 238.33722057581963) rotate(0 15.221459506465862 0)"><path d="M0 0 C5.07 0, 25.37 0, 30.44 0 M0 0 C5.07 0, 25.37 0, 30.44 0" stroke="#000000" stroke-width="1" fill="none"></path></g><g transform="translate(335.74559698577036 238.33722057581963) rotate(0 15.221459506465862 0)"><path d="M30.44 0 L16.85 6.34 L16.85 -6.34 L30.44 0" stroke="none" stroke-width="0" fill="#000000" fill-rule="evenodd"></path><path d="M30.44 0 C27.61 1.32, 24.78 2.64, 16.85 6.34 M30.44 0 C27.22 1.5, 23.99 3.01, 16.85 6.34 M16.85 6.34 C16.85 2.36, 16.85 -1.63, 16.85 -6.34 M16.85 6.34 C16.85 1.66, 16.85 -3.02, 16.85 -6.34 M16.85 -6.34 C21.04 -4.39, 25.22 -2.43, 30.44 0 M16.85 -6.34 C21.26 -4.28, 25.68 -2.22, 30.44 0 M30.44 0 C30.44 0, 30.44 0, 30.44 0 M30.44 0 C30.44 0, 30.44 0, 30.44 0" stroke="#000000" stroke-width="1" fill="none"></path></g></g><mask></mask><g stroke-linecap="round"><g transform="translate(436.74620712317187 312.3838243194168) rotate(0 0 -18.641882570480448)"><path d="M0 0 C0 -6.21, 0 -31.07, 0 -37.28 M0 0 C0 -6.21, 0 -31.07, 0 -37.28" stroke="#000000" stroke-width="1" fill="none"></path></g><g transform="translate(436.74620712317187 312.3838243194168) rotate(0 0 -18.641882570480448)"><path d="M0 -37.28 L6.34 -23.69 L-6.34 -23.69 L0 -37.28" stroke="none" stroke-width="0" fill="#000000" fill-rule="evenodd"></path><path d="M0 -37.28 C1.32 -34.45, 2.64 -31.62, 6.34 -23.69 M0 -37.28 C1.5 -34.06, 3.01 -30.83, 6.34 -23.69 M6.34 -23.69 C2.36 -23.69, -1.63 -23.69, -6.34 -23.69 M6.34 -23.69 C1.66 -23.69, -3.02 -23.69, -6.34 -23.69 M-6.34 -23.69 C-4.39 -27.88, -2.43 -32.06, 0 -37.28 M-6.34 -23.69 C-4.28 -28.1, -2.22 -32.52, 0 -37.28 M0 -37.28 C0 -37.28, 0 -37.28, 0 -37.28 M0 -37.28 C0 -37.28, 0 -37.28, 0 -37.28" stroke="#000000" stroke-width="1" fill="none"></path></g></g><mask></mask><g transform="translate(306.0146065485544 122.2460619708537) rotate(0 145.91111755371094 12.5)"><text x="0" y="0" font-family="Virgil, Segoe UI Emoji" font-size="20px" fill="#000000" text-anchor="start" style="white-space: pre;" direction="ltr" dominant-baseline="text-before-edge">Wrapped keys - locally stored</text></g><g transform="translate(429.73259445917734 20.28145706101145) rotate(0 106.4111099243164 12.5)"><text x="0" y="0" font-family="Virgil, Segoe UI Emoji" font-size="20px" fill="#000000" text-anchor="start" style="white-space: pre;" direction="ltr" dominant-baseline="text-before-edge">Phase Console Crypto</text></g><g stroke-linecap="round" transform="translate(28.59166651405576 30.30005216008351) rotate(0 16.208163626678015 14.876855484184603)"><path d="M7.44 0 M7.44 0 C11.51 0, 15.58 0, 24.98 0 M7.44 0 C12.2 0, 16.97 0, 24.98 0 M24.98 0 C29.94 0, 32.42 2.48, 32.42 7.44 M24.98 0 C29.94 0, 32.42 2.48, 32.42 7.44 M32.42 7.44 C32.42 13.32, 32.42 19.21, 32.42 22.32 M32.42 7.44 C32.42 12.96, 32.42 18.49, 32.42 22.32 M32.42 22.32 C32.42 27.27, 29.94 29.75, 24.98 29.75 M32.42 22.32 C32.42 27.27, 29.94 29.75, 24.98 29.75 M24.98 29.75 C18.93 29.75, 12.88 29.75, 7.44 29.75 M24.98 29.75 C19.14 29.75, 13.3 29.75, 7.44 29.75 M7.44 29.75 C2.48 29.75, 0 27.27, 0 22.32 M7.44 29.75 C2.48 29.75, 0 27.27, 0 22.32 M0 22.32 C0 19.19, 0 16.07, 0 7.44 M0 22.32 C0 17.22, 0 12.13, 0 7.44 M0 7.44 C0 2.48, 2.48 0, 7.44 0 M0 7.44 C0 2.48, 2.48 0, 7.44 0" stroke="#000000" stroke-width="1" fill="none"></path></g><g stroke-linecap="round" transform="translate(29.38626672242026 77.02210250638223) rotate(0 16.208163626678015 15)"><path d="M7.5 0 M7.5 0 C11.54 0, 15.59 0, 24.92 0 M24.92 0 C29.92 0, 32.42 2.5, 32.42 7.5 M32.42 7.5 C32.42 12.81, 32.42 18.11, 32.42 22.5 M32.42 22.5 C32.42 27.5, 29.92 30, 24.92 30 M24.92 30 C18.03 30, 11.14 30, 7.5 30 M7.5 30 C2.5 30, 0 27.5, 0 22.5 M0 22.5 C0 18.2, 0 13.89, 0 7.5 M0 7.5 C0 2.5, 2.5 0, 7.5 0" stroke="#000000" stroke-width="1.5" fill="none" stroke-dasharray="1.5 7"></path></g><g transform="translate(69.01296107022677 84.4736678302753) rotate(0 59.83333206176758 9.199999999999989)"><text x="0" y="0" font-family="Helvetica, Segoe UI Emoji" font-size="16px" fill="#000000" text-anchor="start" style="white-space: pre;" direction="ltr" dominant-baseline="text-before-edge">- Encrypted Data</text></g><g transform="translate(69.41716276113448 36.94956567823476) rotate(0 51.75555419921875 9.199999999999989)"><text x="0" y="0" font-family="Helvetica, Segoe UI Emoji" font-size="16px" fill="#000000" text-anchor="start" style="white-space: pre;" direction="ltr" dominant-baseline="text-before-edge">- Derived Keys</text></g></svg>